0
SECTION
2
HEADER
9
$INSUNITS
70
4
9
$ACADVER
1
AC1014
9
$HANDSEED
5
FFFF
0
ENDSEC
0
SECTION
2
TABLES
0
TABLE
2
VPORT
5
8
100
AcDbSymbolTable
0
ENDTAB
0
TABLE
2
LTYPE
5
5
100
AcDbSymbolTable
0
LTYPE
5
14
100
AcDbSymbolTableRecord
100
AcDbLinetypeTableRecord
2
BYBLOCK
70
0
0
LTYPE
5
15
100
AcDbSymbolTableRecord
100
AcDbLinetypeTableRecord
2
BYLAYER
70
0
0
ENDTAB
0
TABLE
2
LAYER
5
2
100
AcDbSymbolTable
70
2
0
LAYER
5
50
100
AcDbSymbolTableRecord
100
AcDbLayerTableRecord
2
0
70
0
6
CONTINUOUS
0
ENDTAB
0
TABLE
2
STYLE
5
3
100
AcDbSymbolTable
70
1
0
STYLE
5
11
100
AcDbSymbolTableRecord
100
AcDbTextStyleTableRecord
2
STANDARD
70
0
0
ENDTAB
0
TABLE
2
VIEW
5
6
100
AcDbSymbolTable
70
0
0
ENDTAB
0
TABLE
2
UCS
5
7
100
AcDbSymbolTable
70
0
0
ENDTAB
0
TABLE
2
APPID
5
9
100
AcDbSymbolTable
70
2
0
APPID
5
12
100
AcDbSymbolTableRecord
100
AcDbRegAppTableRecord
2
ACAD
70
0
0
ENDTAB
0
TABLE
2
DIMSTYLE
5
A
100
AcDbSymbolTable
70
1
0
ENDTAB
0
TABLE
2
BLOCK_RECORD
5
1
100
AcDbSymbolTable
70
1
0
BLOCK_RECORD
5
1F
100
AcDbSymbolTableRecord
100
AcDbBlockTableRecord
2
*MODEL_SPACE
0
BLOCK_RECORD
5
1B
100
AcDbSymbolTableRecord
100
AcDbBlockTableRecord
2
*PAPER_SPACE
0
ENDTAB
0
ENDSEC
0
SECTION
2
BLOCKS
0
BLOCK
5
20
100
AcDbEntity
100
AcDbBlockBegin
2
*MODEL_SPACE
0
ENDBLK
5
21
100
AcDbEntity
100
AcDbBlockEnd
0
BLOCK
5
1C
100
AcDbEntity
100
AcDbBlockBegin
2
*PAPER_SPACE
0
ENDBLK
5
1D
100
AcDbEntity
100
AcDbBlockEnd
0
ENDSEC
0
SECTION
2
ENTITIES
0
LWPOLYLINE
5
100
100
AcDbEntity
8
0
100
AcDbPolyline
90
4
70
1
43
0.0
10
-60
20
-150.00000000000003
10
60
20
-150.00000000000003
10
60
20
150.00000000000003
10
-60
20
150.00000000000003
0
LWPOLYLINE
5
101
100
AcDbEntity
8
0
100
AcDbPolyline
90
4
70
1
43
0.0
10
135
20
-30
10
90
20
-30
10
90
20
-110
10
135
20
-110
0
LWPOLYLINE
5
102
100
AcDbEntity
8
0
100
AcDbPolyline
90
4
70
1
43
0.0
10
195
20
-29.999999999999996
10
160
20
-30
10
160
20
-90
10
195
20
-90
0
LWPOLYLINE
5
103
100
AcDbEntity
8
0
100
AcDbPolyline
90
4
70
1
43
0.0
10
180
20
148.99400087681272
10
100
20
148.99400087681272
10
100
20
-1.0059991231872805
10
180
20
-1.00599912318728
0
LWPOLYLINE
5
104
100
AcDbEntity
8
0
100
AcDbPolyline
90
4
70
1
43
0.0
10
-85
20
175
10
215
20
175
10
215
20
-175
10
-85
20
-175
0
LWPOLYLINE
5
105
100
AcDbEntity
8
0
100
AcDbPolyline
90
4
70
1
43
0.0
10
20
20
77.562832101118289
10
-20
20
77.562832101118289
10
-20
20
90
10
20
20
90
0
LWPOLYLINE
5
106
100
AcDbEntity
8
0
100
AcDbPolyline
90
4
70
1
43
0.0
10
162.07320304243655
20
77.562832101118346
10
122.07320304243659
20
77.562832101118346
10
122.07320304243659
20
90.000000000000071
10
162.07320304243655
20
90.000000000000071
0
LWPOLYLINE
5
107
100
AcDbEntity
8
0
100
AcDbPolyline
90
4
70
1
43
0.0
10
197.07320304243655
20
-62.437167898881647
10
157.0732030424366
20
-62.437167898881647
10
157.0732030424366
20
-49.999999999999929
10
197.07320304243655
20
-49.999999999999929
0
LWPOLYLINE
5
108
100
AcDbEntity
8
0
100
AcDbPolyline
90
4
70
1
43
0.0
10
132.07320304243655
20
-62.437167898881647
10
92.073203042436589
20
-62.437167898881647
10
92.073203042436589
20
-49.999999999999929
10
132.07320304243655
20
-49.999999999999929
0
LINE
5
109
100
AcDbEntity
8
0
100
AcDbLine
10
-6.8758532404899597
20
80
30
0
11
-8.1036838889122009
21
80
31
0
0
LINE
5
110
100
AcDbEntity
8
0
100
AcDbLine
10
-8.1036838889122009
20
80
30
0
11
-8.1036838889122009
21
87.824010848999023
31
0
0
SPLINE
5
111
100
AcDbEntity
8
0
100
AcDbSpline
70
0
71
2
72
6
73
3
74
0
42
0.000000001
43
0.0000000001
44
0.0000000001
40
0
40
0
40
0
40
1
40
1
40
1
10
-8.1036838889122009
20
87.824010848999023
30
0
10
-8.5470673441886902
20
87.401091456413269
30
0
10
-9.2701229453086853
20
86.978172063827515
30
0
0
SPLINE
5
112
100
AcDbEntity
8
0
100
AcDbSpline
70
0
71
2
72
6
73
3
74
0
42
0.000000001
43
0.0000000001
44
0.0000000001
40
0
40
0
40
0
40
1
40
1
40
1
10
-9.2701229453086853
20
86.978172063827515
30
0
10
-9.9863573908805847
20
86.55525267124176
30
0
10
-10.559345185756683
20
86.343792676925659
30
0
0
LINE
5
113
100
AcDbEntity
8
0
100
AcDbLine
10
-10.559345185756683
20
86.343792676925659
30
0
11
-10.559345185756683
21
87.530695796012878
31
0
0
SPLINE
5
114
100
AcDbEntity
8
0
100
AcDbSpline
70
0
71
2
72
6
73
3
74
0
42
0.000000001
43
0.0000000001
44
0.0000000001
40
0
40
0
40
0
40
1
40
1
40
1
10
-10.559345185756683
20
87.530695796012878
30
0
10
-9.5293316245079041
20
88.01500678062439
30
0
10
-8.7585267424583435
20
88.703956604003906
30
0
0
SPLINE
5
115
100
AcDbEntity
8
0
100
AcDbSpline
70
0
71
2
72
6
73
3
74
0
42
0.000000001
43
0.0000000001
44
0.0000000001
40
0
40
0
40
0
40
1
40
1
40
1
10
-8.7585267424583435
20
88.703956604003906
30
0
10
-7.987721860408783
20
89.392905831336975
30
0
10
-7.6671215891838074
20
90.04092812538147
30
0
0
LINE
5
116
100
AcDbEntity
8
0
100
AcDbLine
10
-7.6671215891838074
20
90.04092812538147
30
0
11
-6.8758532404899597
21
90.04092812538147
31
0
0
LINE
5
117
100
AcDbEntity
8
0
100
AcDbLine
10
-6.8758532404899597
20
90.04092812538147
30
0
11
-6.8758532404899597
21
80
31
0
0
SPLINE
5
118
100
AcDbEntity
8
0
100
AcDbSpline
70
0
71
2
72
6
73
3
74
0
42
0.000000001
43
0.0000000001
44
0.0000000001
40
0
40
0
40
0
40
1
40
1
40
1
10
-3.7312421202659607
20
84.931787252426147
30
0
10
-3.7312421202659607
20
86.705321073532104
30
0
10
-3.3697149157524109
20
87.783083319664001
30
0
0
SPLINE
5
119
100
AcDbEntity
8
0
100
AcDbSpline
70
0
71
2
72
6
73
3
74
0
42
0.000000001
43
0.0000000001
44
0.0000000001
40
0
40
0
40
0
40
1
40
1
40
1
10
-3.3697149157524109
20
87.783083319664001
30
0
10
-3.0013653635978699
20
88.867667317390442
30
0
10
-2.285129725933075
20
89.454297423362732
30
0
0
SPLINE
5
120
100
AcDbEntity
8
0
100
AcDbSpline
70
0
71
2
72
6
73
3
74
0
42
0.000000001
43
0.0000000001
44
0.0000000001
40
0
40
0
40
0
40
1
40
1
40
1
10
-2.285129725933075
20
89.454297423362732
30
0
10
-1.5620741248130798
20
90.04092812538147
30
0
10
-0.4706689715385437
20
90.04092812538147
30
0
0
SPLINE
5
121
100
AcDbEntity
8
0
100
AcDbSpline
70
0
71
2
72
6
73
3
74
0
42
0.000000001
43
0.0000000001
44
0.0000000001
40
0
40
0
40
0
40
1
40
1
40
1
10
-0.4706689715385437
20
90.04092812538147
30
0
10
0.33424168825149536
20
90.04092812538147
30
0
10
0.94133645296096802
20
89.713506698608398
30
0
0
SPLINE
5
122
100
AcDbEntity
8
0
100
AcDbSpline
70
0
71
2
72
6
73
3
74
0
42
0.000000001
43
0.0000000001
44
0.0000000001
40
0
40
0
40
0
40
1
40
1
40
1
10
0.94133645296096802
20
89.713506698608398
30
0
10
1.5484312176704407
20
89.392906427383423
30
0
10
1.9440653920173645
20
88.778990507125854
30
0
0
SPLINE
5
123
100
AcDbEntity
8
0
100
AcDbSpline
70
0
71
2
72
6
73
3
74
0
42
0.000000001
43
0.0000000001
44
0.0000000001
40
0
40
0
40
0
40
1
40
1
40
1
10
1.9440653920173645
20
88.778990507125854
30
0
10
2.3396995663642883
20
88.17189633846283
30
0
10
2.5648000836372375
20
87.291951179504395
30
0
0
SPLINE
5
124
100
AcDbEntity
8
0
100
AcDbSpline
70
0
71
2
72
6
73
3
74
0
42
0.000000001
43
0.0000000001
44
0.0000000001
40
0
40
0
40
0
40
1
40
1
40
1
10
2.5648000836372375
20
87.291951179504395
30
0
10
2.7899053692817688
20
86.418827176094055
30
0
10
2.7899053692817688
20
84.931787252426147
30
0
0
SPLINE
5
125
100
AcDbEntity
8
0
100
AcDbSpline
70
0
71
2
72
6
73
3
74
0
42
0.000000001
43
0.0000000001
44
0.0000000001
40
0
40
0
40
0
40
1
40
1
40
1
10
2.7899053692817688
20
84.931787252426147
30
0
10
2.7899053692817688
20
83.17189633846283
30
0
10
2.4283769726753235
20
82.087312936782837
30
0
0
SPLINE
5
126
100
AcDbEntity
8
0
100
AcDbSpline
70
0
71
2
72
6
73
3
74
0
42
0.000000001
43
0.0000000001
44
0.0000000001
40
0
40
0
40
0
40
1
40
1
40
1
10
2.4283769726753235
20
82.087312936782837
30
0
10
2.0668485760688782
20
81.009550094604492
30
0
10
1.3437917828559875
20
80.416098833084106
30
0
0
SPLINE
5
127
100
AcDbEntity
8
0
100
AcDbSpline
70
0
71
2
72
6
73
3
74
0
42
0.000000001
43
0.0000000001
44
0.0000000001
40
0
40
0
40
0
40
1
40
1
40
1
10
1.3437917828559875
20
80.416098833084106
30
0
10
0.62755852937698364
20
79.829467535018921
30
0
10
-0.4706689715385437
20
79.829467535018921
30
0
0
SPLINE
5
128
100
AcDbEntity
8
0
100
AcDbSpline
70
0
71
2
72
6
73
3
74
0
42
0.000000001
43
0.0000000001
44
0.0000000001
40
0
40
0
40
0
40
1
40
1
40
1
10
-0.4706689715385437
20
79.829467535018921
30
0
10
-1.9167813658714294
20
79.829467535018921
30
0
10
-2.7421566843986511
20
80.866302251815796
30
0
0
SPLINE
5
129
100
AcDbEntity
8
0
100
AcDbSpline
70
0
71
2
72
6
73
3
74
0
42
0.000000001
43
0.0000000001
44
0.0000000001
40
0
40
0
40
0
40
1
40
1
40
1
10
-2.7421566843986511
20
80.866302251815796
30
0
10
-3.7312421202659607
20
82.11459755897522
30
0
10
-3.7312421202659607
20
84.931787252426147
30
0
0
SPLINE
5
130
100
AcDbEntity
8
0
100
AcDbSpline
70
0
71
2
72
6
73
3
74
0
42
0.000000001
43
0.0000000001
44
0.0000000001
40
0
40
0
40
0
40
1
40
1
40
1
10
-2.4693045020103455
20
84.931787252426147
30
0
10
-2.4693045020103455
20
82.469304800033569
30
0
10
-1.8963167071342468
20
81.650750637054443
30
0
0
SPLINE
5
131
100
AcDbEntity
8
0
100
AcDbSpline
70
0
71
2
72
6
73
3
74
0
42
0.000000001
43
0.0000000001
44
0.0000000001
40
0
40
0
40
0
40
1
40
1
40
1
10
-1.8963167071342468
20
81.650750637054443
30
0
10
-1.316506564617157
20
80.839017629623413
30
0
10
-0.4706689715385437
20
80.839017629623413
30
0
0
SPLINE
5
132
100
AcDbEntity
8
0
100
AcDbSpline
70
0
71
2
72
6
73
3
74
0
42
0.000000001
43
0.0000000001
44
0.0000000001
40
0
40
0
40
0
40
1
40
1
40
1
10
-0.4706689715385437
20
80.839017629623413
30
0
10
0.37516862154006958
20
80.839017629623413
30
0
10
0.94815999269485474
20
81.657571792602539
30
0
0
SPLINE
5
133
100
AcDbEntity
8
0
100
AcDbSpline
70
0
71
2
72
6
73
3
74
0
42
0.000000001
43
0.0000000001
44
0.0000000001
40
0
40
0
40
0
40
1
40
1
40
1
10
0.94815999269485474
20
81.657571792602539
30
0
10
1.5279653668403625
20
82.476125955581665
30
0
10
1.5279653668403625
20
84.931787252426147
30
0
0
SPLINE
5
134
100
AcDbEntity
8
0
100
AcDbSpline
70
0
71
2
72
6
73
3
74
0
42
0.000000001
43
0.0000000001
44
0.0000000001
40
0
40
0
40
0
40
1
40
1
40
1
10
1.5279653668403625
20
84.931787252426147
30
0
10
1.5279653668403625
20
87.401091456413269
30
0
10
0.94815999269485474
20
88.212824463844299
30
0
0
SPLINE
5
135
100
AcDbEntity
8
0
100
AcDbSpline
70
0
71
2
72
6
73
3
74
0
42
0.000000001
43
0.0000000001
44
0.0000000001
40
0
40
0
40
0
40
1
40
1
40
1
10
0.94815999269485474
20
88.212824463844299
30
0
10
0.37516862154006958
20
89.024556875228882
30
0
10
-0.48431128263473511
20
89.024556875228882
30
0
0
SPLINE
5
136
100
AcDbEntity
8
0
100
AcDbSpline
70
0
71
2
72
6
73
3
74
0
42
0.000000001
43
0.0000000001
44
0.0000000001
40
0
40
0
40
0
40
1
40
1
40
1
10
-0.48431128263473511
20
89.024556875228882
30
0
10
-1.3301488757133484
20
89.024556875228882
30
0
10
-1.83492511510849
20
88.308322429656982
30
0
0
SPLINE
5
137
100
AcDbEntity
8
0
100
AcDbSpline
70
0
71
2
72
6
73
3
74
0
42
0.000000001
43
0.0000000001
44
0.0000000001
40
0
40
0
40
0
40
1
40
1
40
1
10
-1.83492511510849
20
88.308322429656982
30
0
10
-2.4693045020103455
20
87.394270300865173
30
0
10
-2.4693045020103455
20
84.931787252426147
30
0
0
SPLINE
5
138
100
AcDbEntity
8
0
100
AcDbSpline
70
0
71
2
72
6
73
3
74
0
42
0.000000001
43
0.0000000001
44
0.0000000001
40
0
40
0
40
0
40
1
40
1
40
1
10
4.0381982922554016
20
84.931787252426147
30
0
10
4.0381982922554016
20
86.705321073532104
30
0
10
4.3997266888618469
20
87.783083319664001
30
0
0
SPLINE
5
139
100
AcDbEntity
8
0
100
AcDbSpline
70
0
71
2
72
6
73
3
74
0
42
0.000000001
43
0.0000000001
44
0.0000000001
40
0
40
0
40
0
40
1
40
1
40
1
10
4.3997266888618469
20
87.783083319664001
30
0
10
4.7680762410163879
20
88.867667317390442
30
0
10
5.4843118786811829
20
89.454297423362732
30
0
0
SPLINE
5
140
100
AcDbEntity
8
0
100
AcDbSpline
70
0
71
2
72
6
73
3
74
0
42
0.000000001
43
0.0000000001
44
0.0000000001
40
0
40
0
40
0
40
1
40
1
40
1
10
5.4843118786811829
20
89.454297423362732
30
0
10
6.2073686718940735
20
90.04092812538147
30
0
10
7.2987726330757141
20
90.04092812538147
30
0
0
SPLINE
5
141
100
AcDbEntity
8
0
100
AcDbSpline
70
0
71
2
72
6
73
3
74
0
42
0.000000001
43
0.0000000001
44
0.0000000001
40
0
40
0
40
0
40
1
40
1
40
1
10
7.2987726330757141
20
90.04092812538147
30
0
10
8.1036832928657532
20
90.04092812538147
30
0
10
8.7107780575752258
20
89.713506698608398
30
0
0
SPLINE
5
142
100
AcDbEntity
8
0
100
AcDbSpline
70
0
71
2
72
6
73
3
74
0
42
0.000000001
43
0.0000000001
44
0.0000000001
40
0
40
0
40
0
40
1
40
1
40
1
10
8.7107780575752258
20
89.713506698608398
30
0
10
9.3178728222846985
20
89.392906427383423
30
0
10
9.7135046124458313
20
88.778990507125854
30
0
0
SPLINE
5
143
100
AcDbEntity
8
0
100
AcDbSpline
70
0
71
2
72
6
73
3
74
0
42
0.000000001
43
0.0000000001
44
0.0000000001
40
0
40
0
40
0
40
1
40
1
40
1
10
9.7135046124458313
20
88.778990507125854
30
0
10
10.109141170978546
20
88.17189633846283
30
0
10
10.334241688251495
20
87.291951179504395
30
0
0
SPLINE
5
144
100
AcDbEntity
8
0
100
AcDbSpline
70
0
71
2
72
6
73
3
74
0
42
0.000000001
43
0.0000000001
44
0.0000000001
40
0
40
0
40
0
40
1
40
1
40
1
10
10.334241688251495
20
87.291951179504395
30
0
10
10.559346973896027
20
86.418827176094055
30
0
10
10.559346973896027
20
84.931787252426147
30
0
0
SPLINE
5
145
100
AcDbEntity
8
0
100
AcDbSpline
70
0
71
2
72
6
73
3
74
0
42
0.000000001
43
0.0000000001
44
0.0000000001
40
0
40
0
40
0
40
1
40
1
40
1
10
10.559346973896027
20
84.931787252426147
30
0
10
10.559346973896027
20
83.17189633846283
30
0
10
10.197818577289581
20
82.087312936782837
30
0
0
SPLINE
5
146
100
AcDbEntity
8
0
100
AcDbSpline
70
0
71
2
72
6
73
3
74
0
42
0.000000001
43
0.0000000001
44
0.0000000001
40
0
40
0
40
0
40
1
40
1
40
1
10
10.197818577289581
20
82.087312936782837
30
0
10
9.836290180683136
20
81.009550094604492
30
0
10
9.1132333874702454
20
80.416098833084106
30
0
0
SPLINE
5
147
100
AcDbEntity
8
0
100
AcDbSpline
70
0
71
2
72
6
73
3
74
0
42
0.000000001
43
0.0000000001
44
0.0000000001
40
0
40
0
40
0
40
1
40
1
40
1
10
9.1132333874702454
20
80.416098833084106
30
0
10
8.3970001339912415
20
79.829467535018921
30
0
10
7.2987726330757141
20
79.829467535018921
30
0
0
SPLINE
5
148
100
AcDbEntity
8
0
100
AcDbSpline
70
0
71
2
72
6
73
3
74
0
42
0.000000001
43
0.0000000001
44
0.0000000001
40
0
40
0
40
0
40
1
40
1
40
1
10
7.2987726330757141
20
79.829467535018921
30
0
10
5.8526590466499329
20
79.829467535018921
30
0
10
5.0272849202156067
20
80.866302251815796
30
0
0
SPLINE
5
149
100
AcDbEntity
8
0
100
AcDbSpline
70
0
71
2
72
6
73
3
74
0
42
0.000000001
43
0.0000000001
44
0.0000000001
40
0
40
0
40
0
40
1
40
1
40
1
10
5.0272849202156067
20
80.866302251815796
30
0
10
4.0381982922554016
20
82.11459755897522
30
0
10
4.0381982922554016
20
84.931787252426147
30
0
0
SPLINE
5
150
100
AcDbEntity
8
0
100
AcDbSpline
70
0
71
2
72
6
73
3
74
0
42
0.000000001
43
0.0000000001
44
0.0000000001
40
0
40
0
40
0
40
1
40
1
40
1
10
5.3001359105110168
20
84.931787252426147
30
0
10
5.3001359105110168
20
82.469304800033569
30
0
10
5.873124897480011
20
81.650750637054443
30
0
0
SPLINE
5
151
100
AcDbEntity
8
0
100
AcDbSpline
70
0
71
2
72
6
73
3
74
0
42
0.000000001
43
0.0000000001
44
0.0000000001
40
0
40
0
40
0
40
1
40
1
40
1
10
5.873124897480011
20
81.650750637054443
30
0
10
6.4529326558113098
20
80.839017629623413
30
0
10
7.2987726330757141
20
80.839017629623413
30
0
0
SPLINE
5
152
100
AcDbEntity
8
0
100
AcDbSpline
70
0
71
2
72
6
73
3
74
0
42
0.000000001
43
0.0000000001
44
0.0000000001
40
0
40
0
40
0
40
1
40
1
40
1
10
7.2987726330757141
20
80.839017629623413
30
0
10
8.1446102261543274
20
80.839017629623413
30
0
10
8.7176015973091125
20
81.657571792602539
30
0
0
SPLINE
5
153
100
AcDbEntity
8
0
100
AcDbSpline
70
0
71
2
72
6
73
3
74
0
42
0.000000001
43
0.0000000001
44
0.0000000001
40
0
40
0
40
0
40
1
40
1
40
1
10
8.7176015973091125
20
81.657571792602539
30
0
10
9.2974069714546204
20
82.476125955581665
30
0
10
9.2974069714546204
20
84.931787252426147
30
0
0
SPLINE
5
154
100
AcDbEntity
8
0
100
AcDbSpline
70
0
71
2
72
6
73
3
74
0
42
0.000000001
43
0.0000000001
44
0.0000000001
40
0
40
0
40
0
40
1
40
1
40
1
10
9.2974069714546204
20
84.931787252426147
30
0
10
9.2974069714546204
20
87.401091456413269
30
0
10
8.7176015973091125
20
88.212824463844299
30
0
0
SPLINE
5
155
100
AcDbEntity
8
0
100
AcDbSpline
70
0
71
2
72
6
73
3
74
0
42
0.000000001
43
0.0000000001
44
0.0000000001
40
0
40
0
40
0
40
1
40
1
40
1
10
8.7176015973091125
20
88.212824463844299
30
0
10
8.1446102261543274
20
89.024556875228882
30
0
10
7.2851303219795227
20
89.024556875228882
30
0
0
SPLINE
5
156
100
AcDbEntity
8
0
100
AcDbSpline
70
0
71
2
72
6
73
3
74
0
42
0.000000001
43
0.0000000001
44
0.0000000001
40
0
40
0
40
0
40
1
40
1
40
1
10
7.2851303219795227
20
89.024556875228882
30
0
10
6.4392903447151184
20
89.024556875228882
30
0
10
5.9345152974128723
20
88.308322429656982
30
0
0
SPLINE
5
157
100
AcDbEntity
8
0
100
AcDbSpline
70
0
71
2
72
6
73
3
74
0
42
0.000000001
43
0.0000000001
44
0.0000000001
40
0
40
0
40
0
40
1
40
1
40
1
10
5.9345152974128723
20
88.308322429656982
30
0
10
5.3001359105110168
20
87.394270300865173
30
0
10
5.3001359105110168
20
84.931787252426147
30
0
0
SPLINE
5
158
100
AcDbEntity
8
0
100
AcDbSpline
70
0
71
2
72
6
73
3
74
0
42
0.000000001
43
0.0000000001
44
0.0000000001
40
0
40
0
40
0
40
1
40
1
40
1
10
136.82422628282404
20
85.422919988632273
30
0
10
136.06024255632258
20
85.702592134475779
30
0
10
135.69189300416804
20
86.221010088920664
30
0
0
SPLINE
5
159
100
AcDbEntity
8
0
100
AcDbSpline
70
0
71
2
72
6
73
3
74
0
42
0.000000001
43
0.0000000001
44
0.0000000001
40
0
40
0
40
0
40
1
40
1
40
1
10
135.69189300416804
20
86.221010088920664
30
0
10
135.3235434520135
20
86.739427447319102
30
0
10
135.3235434520135
20
87.462483048439097
30
0
0
SPLINE
5
160
100
AcDbEntity
8
0
100
AcDbSpline
70
0
71
2
72
6
73
3
74
0
42
0.000000001
43
0.0000000001
44
0.0000000001
40
0
40
0
40
0
40
1
40
1
40
1
10
135.3235434520135
20
87.462483048439097
30
0
10
135.3235434520135
20
88.553888201713633
30
0
10
136.10799064515925
20
89.297408461570811
30
0
0
SPLINE
5
161
100
AcDbEntity
8
0
100
AcDbSpline
70
0
71
2
72
6
73
3
74
0
42
0.000000001
43
0.0000000001
44
0.0000000001
40
0
40
0
40
0
40
1
40
1
40
1
10
136.10799064515925
20
89.297408461570811
30
0
10
136.892437838305
20
90.040928125381541
30
0
10
138.19530358194208
20
90.040928125381541
30
0
0
SPLINE
5
162
100
AcDbEntity
8
0
100
AcDbSpline
70
0
71
2
72
6
73
3
74
0
42
0.000000001
43
0.0000000001
44
0.0000000001
40
0
40
0
40
0
40
1
40
1
40
1
10
138.19530358194208
20
90.040928125381541
30
0
10
139.50499048112727
20
90.040928125381541
30
0
10
140.30307998536921
20
89.276944398880076
30
0
0
SPLINE
5
163
100
AcDbEntity
8
0
100
AcDbSpline
70
0
71
2
72
6
73
3
74
0
42
0.000000001
43
0.0000000001
44
0.0000000001
40
0
40
0
40
0
40
1
40
1
40
1
10
140.30307998536921
20
89.276944398880076
30
0
10
141.10116948961115
20
88.519781827926707
30
0
10
141.10116948961115
20
87.428376674652171
30
0
0
SPLINE
5
164
100
AcDbEntity
8
0
100
AcDbSpline
70
0
71
2
72
6
73
3
74
0
42
0.000000001
43
0.0000000001
44
0.0000000001
40
0
40
0
40
0
40
1
40
1
40
1
10
141.10116948961115
20
87.428376674652171
30
0
10
141.10116948961115
20
86.732606291771006
30
0
10
140.73281993745661
20
86.214188337326121
30
0
0
SPLINE
5
165
100
AcDbEntity
8
0
100
AcDbSpline
70
0
71
2
72
6
73
3
74
0
42
0.000000001
43
0.0000000001
44
0.0000000001
40
0
40
0
40
0
40
1
40
1
40
1
10
140.73281993745661
20
86.214188337326121
30
0
10
140.37129273294306
20
85.702592134475779
30
0
10
139.62777366517878
20
85.422919988632273
30
0
0
SPLINE
5
166
100
AcDbEntity
8
0
100
AcDbSpline
70
0
71
2
72
6
73
3
74
0
42
0.000000001
43
0.0000000001
44
0.0000000001
40
0
40
0
40
0
40
1
40
1
40
1
10
139.62777366517878
20
85.422919988632273
30
0
10
140.54864635347224
20
85.122783184051585
30
0
10
141.0261355864892
20
84.454297423362803
30
0
0
SPLINE
5
167
100
AcDbEntity
8
0
100
AcDbSpline
70
0
71
2
72
6
73
3
74
0
42
0.000000001
43
0.0000000001
44
0.0000000001
40
0
40
0
40
0
40
1
40
1
40
1
10
141.0261355864892
20
84.454297423362803
30
0
10
141.51044597505427
20
83.785811662674021
30
0
10
141.51044597505427
20
82.858117222786021
30
0
0
SPLINE
5
168
100
AcDbEntity
8
0
100
AcDbSpline
70
0
71
2
72
6
73
3
74
0
42
0.000000001
43
0.0000000001
44
0.0000000001
40
0
40
0
40
0
40
1
40
1
40
1
10
141.51044597505427
20
82.858117222786021
30
0
10
141.51044597505427
20
81.575716733932566
30
0
10
140.603215597857
20
80.702592134475779
30
0
0
SPLINE
5
169
100
AcDbEntity
8
0
100
AcDbSpline
70
0
71
2
72
6
73
3
74
0
42
0.000000001
43
0.0000000001
44
0.0000000001
40
0
40
0
40
0
40
1
40
1
40
1
10
140.603215597857
20
80.702592134475779
30
0
10
139.69598522065974
20
79.829467535018992
30
0
10
138.21576704858637
20
79.829467535018992
30
0
0
SPLINE
5
170
100
AcDbEntity
8
0
100
AcDbSpline
70
0
71
2
72
6
73
3
74
0
42
0.000000001
43
0.0000000001
44
0.0000000001
40
0
40
0
40
0
40
1
40
1
40
1
10
138.21576704858637
20
79.829467535018992
30
0
10
136.73554887651301
20
79.829467535018992
30
0
10
135.82831849931574
20
80.702592134475779
30
0
0
SPLINE
5
171
100
AcDbEntity
8
0
100
AcDbSpline
70
0
71
2
72
6
73
3
74
0
42
0.000000001
43
0.0000000001
44
0.0000000001
40
0
40
0
40
0
40
1
40
1
40
1
10
135.82831849931574
20
80.702592134475779
30
0
10
134.92108812211848
20
81.582537889480662
30
0
10
134.92108812211848
20
82.892223596572947
30
0
0
SPLINE
5
172
100
AcDbEntity
8
0
100
AcDbSpline
70
0
71
2
72
6
73
3
74
0
42
0.000000001
43
0.0000000001
44
0.0000000001
40
0
40
0
40
0
40
1
40
1
40
1
10
134.92108812211848
20
82.892223596572947
30
0
10
134.92108812211848
20
83.867666721344065
30
0
10
135.41222085832453
20
84.522510170936656
30
0
0
SPLINE
5
173
100
AcDbEntity
8
0
100
AcDbSpline
70
0
71
2
72
6
73
3
74
0
42
0.000000001
43
0.0000000001
44
0.0000000001
40
0
40
0
40
0
40
1
40
1
40
1
10
135.41222085832453
20
84.522510170936656
30
0
10
135.91017355798579
20
85.184174776077342
30
0
10
136.82422628282404
20
85.422919988632273
30
0
0
SPLINE
5
174
100
AcDbEntity
8
0
100
AcDbSpline
70
0
71
2
72
6
73
3
74
0
42
0.000000001
43
0.0000000001
44
0.0000000001
40
0
40
0
40
0
40
1
40
1
40
1
10
136.57865991472102
20
87.503411173820567
30
0
10
136.57865991472102
20
86.793997287750315
30
0
10
137.0356856810937
20
86.34379267692573
30
0
0
SPLINE
5
175
100
AcDbEntity
8
0
100
AcDbSpline
70
0
71
2
72
6
73
3
74
0
42
0.000000001
43
0.0000000001
44
0.0000000001
40
0
40
0
40
0
40
1
40
1
40
1
10
137.0356856810937
20
86.34379267692573
30
0
10
137.49271144746638
20
85.893588066101145
30
0
10
138.22258820413447
20
85.893588066101145
30
0
0
SPLINE
5
176
100
AcDbEntity
8
0
100
AcDbSpline
70
0
71
2
72
6
73
3
74
0
42
0.000000001
43
0.0000000001
44
0.0000000001
40
0
40
0
40
0
40
1
40
1
40
1
10
138.22258820413447
20
85.893588066101145
30
0
10
138.93200149415827
20
85.893588066101145
30
0
10
139.38220729707575
20
86.336971521377635
30
0
0
SPLINE
5
177
100
AcDbEntity
8
0
100
AcDbSpline
70
0
71
2
72
6
73
3
74
0
42
0.000000001
43
0.0000000001
44
0.0000000001
40
0
40
0
40
0
40
1
40
1
40
1
10
139.38220729707575
20
86.336971521377635
30
0
10
139.83923187135554
20
86.787176132202219
30
0
10
139.83923187135554
20
87.435197830200266
30
0
0
SPLINE
5
178
100
AcDbEntity
8
0
100
AcDbSpline
70
0
71
2
72
6
73
3
74
0
42
0.000000001
43
0.0000000001
44
0.0000000001
40
0
40
0
40
0
40
1
40
1
40
1
10
139.83923187135554
20
87.435197830200266
30
0
10
139.83923187135554
20
88.110505342483592
30
0
10
139.36856498597956
20
88.567531108856272
30
0
0
SPLINE
5
179
100
AcDbEntity
8
0
100
AcDbSpline
70
0
71
2
72
6
73
3
74
0
42
0.000000001
43
0.0000000001
44
0.0000000001
40
0
40
0
40
0
40
1
40
1
40
1
10
139.36856498597956
20
88.567531108856272
30
0
10
138.90471687196589
20
89.031378030777049
30
0
10
138.20894589303828
20
89.031378030777049
30
0
0
SPLINE
5
180
100
AcDbEntity
8
0
100
AcDbSpline
70
0
71
2
72
6
73
3
74
0
42
0.000000001
43
0.0000000001
44
0.0000000001
40
0
40
0
40
0
40
1
40
1
40
1
10
138.20894589303828
20
89.031378030777049
30
0
10
137.50635375856257
20
89.031378030777049
30
0
10
137.04250683664179
20
88.581173419952464
30
0
0
SPLINE
5
181
100
AcDbEntity
8
0
100
AcDbSpline
70
0
71
2
72
6
73
3
74
0
42
0.000000001
43
0.0000000001
44
0.0000000001
40
0
40
0
40
0
40
1
40
1
40
1
10
137.04250683664179
20
88.581173419952464
30
0
10
136.57865991472102
20
88.130968809127879
30
0
10
136.57865991472102
20
87.503411173820567
30
0
0
SPLINE
5
182
100
AcDbEntity
8
0
100
AcDbSpline
70
0
71
2
72
6
73
3
74
0
42
0.000000001
43
0.0000000001
44
0.0000000001
40
0
40
0
40
0
40
1
40
1
40
1
10
136.18302574037409
20
82.885402441024851
30
0
10
136.18302574037409
20
82.360163927078318
30
0
10
136.42859091638422
20
81.869031190872263
30
0
0
SPLINE
5
183
100
AcDbEntity
8
0
100
AcDbSpline
70
0
71
2
72
6
73
3
74
0
42
0.000000001
43
0.0000000001
44
0.0000000001
40
0
40
0
40
0
40
1
40
1
40
1
10
136.42859091638422
20
81.869031190872263
30
0
10
136.68097844003535
20
81.377898454666209
30
0
10
137.1721111762414
20
81.105047464370799
30
0
0
SPLINE
5
184
100
AcDbEntity
8
0
100
AcDbSpline
70
0
71
2
72
6
73
3
74
0
42
0.000000001
43
0.0000000001
44
0.0000000001
40
0
40
0
40
0
40
1
40
1
40
1
10
137.1721111762414
20
81.105047464370799
30
0
10
137.66324272035456
20
80.839017629623484
30
0
10
138.22940935968256
20
80.839017629623484
30
0
0
SPLINE
5
185
100
AcDbEntity
8
0
100
AcDbSpline
70
0
71
2
72
6
73
3
74
0
42
0.000000001
43
0.0000000001
44
0.0000000001
40
0
40
0
40
0
40
1
40
1
40
1
10
138.22940935968256
20
80.839017629623484
30
0
10
139.10935511468745
20
80.839017629623484
30
0
10
139.68234290956354
20
81.405184268951487
30
0
0
SPLINE
5
186
100
AcDbEntity
8
0
100
AcDbSpline
70
0
71
2
72
6
73
3
74
0
42
0.000000001
43
0.0000000001
44
0.0000000001
40
0
40
0
40
0
40
1
40
1
40
1
10
139.68234290956354
20
81.405184268951487
30
0
10
140.25533070443964
20
81.97135090827949
30
0
10
140.25533070443964
20
82.844474315643382
30
0
0
SPLINE
5
187
100
AcDbEntity
8
0
100
AcDbSpline
70
0
71
2
72
6
73
3
74
0
42
0.000000001
43
0.0000000001
44
0.0000000001
40
0
40
0
40
0
40
1
40
1
40
1
10
140.25533070443964
20
82.844474315643382
30
0
10
140.25533070443964
20
83.73124122619636
30
0
10
139.66187944291926
20
84.311050176620554
30
0
0
SPLINE
5
188
100
AcDbEntity
8
0
100
AcDbSpline
70
0
71
2
72
6
73
3
74
0
42
0.000000001
43
0.0000000001
44
0.0000000001
40
0
40
0
40
0
40
1
40
1
40
1
10
139.66187944291926
20
84.311050176620554
30
0
10
139.07524814485407
20
84.890859127044749
30
0
10
138.18848242639399
20
84.890859127044749
30
0
0
SPLINE
5
189
100
AcDbEntity
8
0
100
AcDbSpline
70
0
71
2
72
6
73
3
74
0
42
0.000000001
43
0.0000000001
44
0.0000000001
40
0
40
0
40
0
40
1
40
1
40
1
10
138.18848242639399
20
84.890859127044749
30
0
10
137.3221789824853
20
84.890859127044749
30
0
10
136.7491911876092
20
84.31787133216865
30
0
0
SPLINE
5
190
100
AcDbEntity
8
0
100
AcDbSpline
70
0
71
2
72
6
73
3
74
0
42
0.000000001
43
0.0000000001
44
0.0000000001
40
0
40
0
40
0
40
1
40
1
40
1
10
136.7491911876092
20
84.31787133216865
30
0
10
136.18302574037409
20
83.744884133338999
30
0
10
136.18302574037409
20
82.885402441024851
30
0
0
SPLINE
5
191
100
AcDbEntity
8
0
100
AcDbSpline
70
0
71
2
72
6
73
3
74
0
42
0.000000001
43
0.0000000001
44
0.0000000001
40
0
40
0
40
0
40
1
40
1
40
1
10
142.70416965364313
20
84.931787252426219
30
0
10
142.70416965364313
20
86.705321073532176
30
0
10
143.06569805024958
20
87.783083319664073
30
0
0
SPLINE
5
192
100
AcDbEntity
8
0
100
AcDbSpline
70
0
71
2
72
6
73
3
74
0
42
0.000000001
43
0.0000000001
44
0.0000000001
40
0
40
0
40
0
40
1
40
1
40
1
10
143.06569805024958
20
87.783083319664073
30
0
10
143.43404760240412
20
88.867667317390513
30
0
10
144.15028324006892
20
89.454297423362803
30
0
0
SPLINE
5
193
100
AcDbEntity
8
0
100
AcDbSpline
70
0
71
2
72
6
73
3
74
0
42
0.000000001
43
0.0000000001
44
0.0000000001
40
0
40
0
40
0
40
1
40
1
40
1
10
144.15028324006892
20
89.454297423362803
30
0
10
144.87334003328181
20
90.040928125381541
30
0
10
145.96474399446345
20
90.040928125381541
30
0
0
SPLINE
5
194
100
AcDbEntity
8
0
100
AcDbSpline
70
0
71
2
72
6
73
3
74
0
42
0.000000001
43
0.0000000001
44
0.0000000001
40
0
40
0
40
0
40
1
40
1
40
1
10
145.96474399446345
20
90.040928125381541
30
0
10
146.76965465425349
20
90.040928125381541
30
0
10
147.37674941896296
20
89.713506698608469
30
0
0
SPLINE
5
195
100
AcDbEntity
8
0
100
AcDbSpline
70
0
71
2
72
6
73
3
74
0
42
0.000000001
43
0.0000000001
44
0.0000000001
40
0
40
0
40
0
40
1
40
1
40
1
10
147.37674941896296
20
89.713506698608469
30
0
10
147.98384418367243
20
89.392906427383494
30
0
10
148.37947835801936
20
88.778990507125926
30
0
0
SPLINE
5
196
100
AcDbEntity
8
0
100
AcDbSpline
70
0
71
2
72
6
73
3
74
0
42
0.000000001
43
0.0000000001
44
0.0000000001
40
0
40
0
40
0
40
1
40
1
40
1
10
148.37947835801936
20
88.778990507125926
30
0
10
148.77511253236628
20
88.171896338462901
30
0
10
149.00021304963923
20
87.291951179504466
30
0
0
SPLINE
5
197
100
AcDbEntity
8
0
100
AcDbSpline
70
0
71
2
72
6
73
3
74
0
42
0.000000001
43
0.0000000001
44
0.0000000001
40
0
40
0
40
0
40
1
40
1
40
1
10
149.00021304963923
20
87.291951179504466
30
0
10
149.22531833528376
20
86.418827176094126
30
0
10
149.22531833528376
20
84.931787252426219
30
0
0
SPLINE
5
198
100
AcDbEntity
8
0
100
AcDbSpline
70
0
71
2
72
6
73
3
74
0
42
0.000000001
43
0.0000000001
44
0.0000000001
40
0
40
0
40
0
40
1
40
1
40
1
10
149.22531833528376
20
84.931787252426219
30
0
10
149.22531833528376
20
83.171896338462901
30
0
10
148.86378993867731
20
82.087312936782908
30
0
0
SPLINE
5
199
100
AcDbEntity
8
0
100
AcDbSpline
70
0
71
2
72
6
73
3
74
0
42
0.000000001
43
0.0000000001
44
0.0000000001
40
0
40
0
40
0
40
1
40
1
40
1
10
148.86378993867731
20
82.087312936782908
30
0
10
148.50226154207087
20
81.009550094604563
30
0
10
147.77920474885798
20
80.416098833084177
30
0
0
SPLINE
5
200
100
AcDbEntity
8
0
100
AcDbSpline
70
0
71
2
72
6
73
3
74
0
42
0.000000001
43
0.0000000001
44
0.0000000001
40
0
40
0
40
0
40
1
40
1
40
1
10
147.77920474885798
20
80.416098833084177
30
0
10
147.06297149537897
20
79.829467535018992
30
0
10
145.96474399446345
20
79.829467535018992
30
0
0
SPLINE
5
201
100
AcDbEntity
8
0
100
AcDbSpline
70
0
71
2
72
6
73
3
74
0
42
0.000000001
43
0.0000000001
44
0.0000000001
40
0
40
0
40
0
40
1
40
1
40
1
10
145.96474399446345
20
79.829467535018992
30
0
10
144.51863040803767
20
79.829467535018992
30
0
10
143.69325628160334
20
80.866302251815867
30
0
0
SPLINE
5
202
100
AcDbEntity
8
0
100
AcDbSpline
70
0
71
2
72
6
73
3
74
0
42
0.000000001
43
0.0000000001
44
0.0000000001
40
0
40
0
40
0
40
1
40
1
40
1
10
143.69325628160334
20
80.866302251815867
30
0
10
142.70416965364313
20
82.114597558975291
30
0
10
142.70416965364313
20
84.931787252426219
30
0
0
SPLINE
5
203
100
AcDbEntity
8
0
100
AcDbSpline
70
0
71
2
72
6
73
3
74
0
42
0.000000001
43
0.0000000001
44
0.0000000001
40
0
40
0
40
0
40
1
40
1
40
1
10
143.96610965608454
20
84.931787252426219
30
0
10
143.96610965608454
20
82.46930480003364
30
0
10
144.53909625886774
20
81.650750637054514
30
0
0
SPLINE
5
204
100
AcDbEntity
8
0
100
AcDbSpline
70
0
71
2
72
6
73
3
74
0
42
0.000000001
43
0.0000000001
44
0.0000000001
40
0
40
0
40
0
40
1
40
1
40
1
10
144.53909625886774
20
81.650750637054514
30
0
10
145.11890640138483
20
80.839017629623484
30
0
10
145.96474399446345
20
80.839017629623484
30
0
0
SPLINE
5
205
100
AcDbEntity
8
0
100
AcDbSpline
70
0
71
2
72
6
73
3
74
0
42
0.000000001
43
0.0000000001
44
0.0000000001
40
0
40
0
40
0
40
1
40
1
40
1
10
145.96474399446345
20
80.839017629623484
30
0
10
146.81058158754206
20
80.839017629623484
30
0
10
147.38357295869685
20
81.65757179260261
30
0
0
SPLINE
5
206
100
AcDbEntity
8
0
100
AcDbSpline
70
0
71
2
72
6
73
3
74
0
42
0.000000001
43
0.0000000001
44
0.0000000001
40
0
40
0
40
0
40
1
40
1
40
1
10
147.38357295869685
20
81.65757179260261
30
0
10
147.96337833284235
20
82.476125955581736
30
0
10
147.96337833284235
20
84.931787252426219
30
0
0
SPLINE
5
207
100
AcDbEntity
8
0
100
AcDbSpline
70
0
71
2
72
6
73
3
74
0
42
0.000000001
43
0.0000000001
44
0.0000000001
40
0
40
0
40
0
40
1
40
1
40
1
10
147.96337833284235
20
84.931787252426219
30
0
10
147.96337833284235
20
87.40109145641334
30
0
10
147.38357295869685
20
88.21282446384437
30
0
0
SPLINE
5
208
100
AcDbEntity
8
0
100
AcDbSpline
70
0
71
2
72
6
73
3
74
0
42
0.000000001
43
0.0000000001
44
0.0000000001
40
0
40
0
40
0
40
1
40
1
40
1
10
147.38357295869685
20
88.21282446384437
30
0
10
146.81058158754206
20
89.024556875228953
30
0
10
145.95110168336726
20
89.024556875228953
30
0
0
SPLINE
5
209
100
AcDbEntity
8
0
100
AcDbSpline
70
0
71
2
72
6
73
3
74
0
42
0.000000001
43
0.0000000001
44
0.0000000001
40
0
40
0
40
0
40
1
40
1
40
1
10
145.95110168336726
20
89.024556875228953
30
0
10
145.10526409028864
20
89.024556875228953
30
0
10
144.6004890429864
20
88.308322429657053
30
0
0
SPLINE
5
210
100
AcDbEntity
8
0
100
AcDbSpline
70
0
71
2
72
6
73
3
74
0
42
0.000000001
43
0.0000000001
44
0.0000000001
40
0
40
0
40
0
40
1
40
1
40
1
10
144.6004890429864
20
88.308322429657053
30
0
10
143.96610965608454
20
87.394270300865244
30
0
10
143.96610965608454
20
84.931787252426219
30
0
0
LINE
5
211
100
AcDbEntity
8
0
100
AcDbLine
10
174.06501650466419
20
-59.999999999999929
30
0
11
174.06501650466419
21
-57.605730295181203
31
0
0
LINE
5
212
100
AcDbEntity
8
0
100
AcDbLine
10
174.06501650466419
20
-57.605730295181203
30
0
11
169.72668170585132
21
-57.605730295181203
31
0
0
LINE
5
213
100
AcDbEntity
8
0
100
AcDbLine
10
169.72668170585132
20
-57.605730295181203
30
0
11
169.72668170585132
21
-56.480218172073293
31
0
0
LINE
5
214
100
AcDbEntity
8
0
100
AcDbLine
10
169.72668170585132
20
-56.480218172073293
30
0
11
174.29011940612293
21
-49.999999999999929
31
0
0
LINE
5
215
100
AcDbEntity
8
0
100
AcDbLine
10
174.29011940612293
20
-49.999999999999929
30
0
11
175.29284715308643
21
-49.999999999999929
31
0
0
LINE
5
216
100
AcDbEntity
8
0
100
AcDbLine
10
175.29284715308643
20
-49.999999999999929
30
0
11
175.29284715308643
21
-56.480218172073293
31
0
0
LINE
5
217
100
AcDbEntity
8
0
100
AcDbLine
10
175.29284715308643
20
-56.480218172073293
30
0
11
176.64346217765308
21
-56.480218172073293
31
0
0
LINE
5
218
100
AcDbEntity
8
0
100
AcDbLine
10
176.64346217765308
20
-56.480218172073293
30
0
11
176.64346217765308
21
-57.605730295181203
31
0
0
LINE
5
219
100
AcDbEntity
8
0
100
AcDbLine
10
176.64346217765308
20
-57.605730295181203
30
0
11
175.29284715308643
21
-57.605730295181203
31
0
0
LINE
5
220
100
AcDbEntity
8
0
100
AcDbLine
10
175.29284715308643
20
-57.605730295181203
30
0
11
175.29284715308643
21
-59.999999999999929
31
0
0
LINE
5
221
100
AcDbEntity
8
0
100
AcDbLine
10
175.29284715308643
20
-59.999999999999929
30
0
11
174.06501650466419
21
-59.999999999999929
31
0
0
LINE
5
222
100
AcDbEntity
8
0
100
AcDbLine
10
174.06501650466419
20
-56.480218172073293
30
0
11
174.06501650466419
21
-51.9713503122329
31
0
0
LINE
5
223
100
AcDbEntity
8
0
100
AcDbLine
10
174.06501650466419
20
-51.9713503122329
30
0
11
170.93404888762927
21
-56.480218172073293
31
0
0
LINE
5
224
100
AcDbEntity
8
0
100
AcDbLine
10
170.93404888762927
20
-56.480218172073293
30
0
11
174.06501650466419
21
-56.480218172073293
31
0
0
SPLINE
5
225
100
AcDbEntity
8
0
100
AcDbSpline
70
0
71
2
72
6
73
3
74
0
42
0.000000001
43
0.0000000001
44
0.0000000001
40
0
40
0
40
0
40
1
40
1
40
1
10
177.89857625617481
20
-55.068212747573781
30
0
10
177.89857625617481
20
-53.294678926467824
30
0
10
178.26010465278125
20
-52.216916680335927
30
0
0
SPLINE
5
226
100
AcDbEntity
8
0
100
AcDbSpline
70
0
71
2
72
6
73
3
74
0
42
0.000000001
43
0.0000000001
44
0.0000000001
40
0
40
0
40
0
40
1
40
1
40
1
10
178.26010465278125
20
-52.216916680335927
30
0
10
178.62845420493579
20
-51.132332682609487
30
0
10
179.34468984260059
20
-50.545702576637197
30
0
0
SPLINE
5
227
100
AcDbEntity
8
0
100
AcDbSpline
70
0
71
2
72
6
73
3
74
0
42
0.000000001
43
0.0000000001
44
0.0000000001
40
0
40
0
40
0
40
1
40
1
40
1
10
179.34468984260059
20
-50.545702576637197
30
0
10
180.06774663581348
20
-49.959071874618459
30
0
10
181.15915059699512
20
-49.959071874618459
30
0
0
SPLINE
5
228
100
AcDbEntity
8
0
100
AcDbSpline
70
0
71
2
72
6
73
3
74
0
42
0.000000001
43
0.0000000001
44
0.0000000001
40
0
40
0
40
0
40
1
40
1
40
1
10
181.15915059699512
20
-49.959071874618459
30
0
10
181.96406125678516
20
-49.959071874618459
30
0
10
182.57115602149463
20
-50.286493301391531
30
0
0
SPLINE
5
229
100
AcDbEntity
8
0
100
AcDbSpline
70
0
71
2
72
6
73
3
74
0
42
0.000000001
43
0.0000000001
44
0.0000000001
40
0
40
0
40
0
40
1
40
1
40
1
10
182.57115602149463
20
-50.286493301391531
30
0
10
183.1782507862041
20
-50.607093572616506
30
0
10
183.57388496055103
20
-51.221009492874074
30
0
0
SPLINE
5
230
100
AcDbEntity
8
0
100
AcDbSpline
70
0
71
2
72
6
73
3
74
0
42
0.000000001
43
0.0000000001
44
0.0000000001
40
0
40
0
40
0
40
1
40
1
40
1
10
183.57388496055103
20
-51.221009492874074
30
0
10
183.96951913489795
20
-51.828103661537099
30
0
10
184.1946196521709
20
-52.708048820495534
30
0
0
SPLINE
5
231
100
AcDbEntity
8
0
100
AcDbSpline
70
0
71
2
72
6
73
3
74
0
42
0.000000001
43
0.0000000001
44
0.0000000001
40
0
40
0
40
0
40
1
40
1
40
1
10
184.1946196521709
20
-52.708048820495534
30
0
10
184.41972493781543
20
-53.581172823905874
30
0
10
184.41972493781543
20
-55.068212747573781
30
0
0
SPLINE
5
232
100
AcDbEntity
8
0
100
AcDbSpline
70
0
71
2
72
6
73
3
74
0
42
0.000000001
43
0.0000000001
44
0.0000000001
40
0
40
0
40
0
40
1
40
1
40
1
10
184.41972493781543
20
-55.068212747573781
30
0
10
184.41972493781543
20
-56.828103661537099
30
0
10
184.05819654120899
20
-57.912687063217092
30
0
0
SPLINE
5
233
100
AcDbEntity
8
0
100
AcDbSpline
70
0
71
2
72
6
73
3
74
0
42
0.000000001
43
0.0000000001
44
0.0000000001
40
0
40
0
40
0
40
1
40
1
40
1
10
184.05819654120899
20
-57.912687063217092
30
0
10
183.69666814460254
20
-58.990449905395437
30
0
10
182.97361135138965
20
-59.583901166915823
30
0
0
SPLINE
5
234
100
AcDbEntity
8
0
100
AcDbSpline
70
0
71
2
72
6
73
3
74
0
42
0.000000001
43
0.0000000001
44
0.0000000001
40
0
40
0
40
0
40
1
40
1
40
1
10
182.97361135138965
20
-59.583901166915823
30
0
10
182.25737809791065
20
-60.170532464981008
30
0
10
181.15915059699512
20
-60.170532464981008
30
0
0
SPLINE
5
235
100
AcDbEntity
8
0
100
AcDbSpline
70
0
71
2
72
6
73
3
74
0
42
0.000000001
43
0.0000000001
44
0.0000000001
40
0
40
0
40
0
40
1
40
1
40
1
10
181.15915059699512
20
-60.170532464981008
30
0
10
179.71303701056934
20
-60.170532464981008
30
0
10
178.88766288413501
20
-59.133697748184133
30
0
0
SPLINE
5
236
100
AcDbEntity
8
0
100
AcDbSpline
70
0
71
2
72
6
73
3
74
0
42
0.000000001
43
0.0000000001
44
0.0000000001
40
0
40
0
40
0
40
1
40
1
40
1
10
178.88766288413501
20
-59.133697748184133
30
0
10
177.89857625617481
20
-57.885402441024709
30
0
10
177.89857625617481
20
-55.068212747573781
30
0
0
SPLINE
5
237
100
AcDbEntity
8
0
100
AcDbSpline
70
0
71
2
72
6
73
3
74
0
42
0.000000001
43
0.0000000001
44
0.0000000001
40
0
40
0
40
0
40
1
40
1
40
1
10
179.16051625861621
20
-55.068212747573781
30
0
10
179.16051625861621
20
-57.53069519996636
30
0
10
179.73350286139942
20
-58.349249362945486
30
0
0
SPLINE
5
238
100
AcDbEntity
8
0
100
AcDbSpline
70
0
71
2
72
6
73
3
74
0
42
0.000000001
43
0.0000000001
44
0.0000000001
40
0
40
0
40
0
40
1
40
1
40
1
10
179.73350286139942
20
-58.349249362945486
30
0
10
180.31331300391651
20
-59.160982370376516
30
0
10
181.15915059699512
20
-59.160982370376516
30
0
0
SPLINE
5
239
100
AcDbEntity
8
0
100
AcDbSpline
70
0
71
2
72
6
73
3
74
0
42
0.000000001
43
0.0000000001
44
0.0000000001
40
0
40
0
40
0
40
1
40
1
40
1
10
181.15915059699512
20
-59.160982370376516
30
0
10
182.00498819007373
20
-59.160982370376516
30
0
10
182.57797956122852
20
-58.34242820739739
30
0
0
SPLINE
5
240
100
AcDbEntity
8
0
100
AcDbSpline
70
0
71
2
72
6
73
3
74
0
42
0.000000001
43
0.0000000001
44
0.0000000001
40
0
40
0
40
0
40
1
40
1
40
1
10
182.57797956122852
20
-58.34242820739739
30
0
10
183.15778493537402
20
-57.523874044418264
30
0
10
183.15778493537402
20
-55.068212747573781
30
0
0
SPLINE
5
241
100
AcDbEntity
8
0
100
AcDbSpline
70
0
71
2
72
6
73
3
74
0
42
0.000000001
43
0.0000000001
44
0.0000000001
40
0
40
0
40
0
40
1
40
1
40
1
10
183.15778493537402
20
-55.068212747573781
30
0
10
183.15778493537402
20
-52.59890854358666
30
0
10
182.57797956122852
20
-51.78717553615563
30
0
0
SPLINE
5
242
100
AcDbEntity
8
0
100
AcDbSpline
70
0
71
2
72
6
73
3
74
0
42
0.000000001
43
0.0000000001
44
0.0000000001
40
0
40
0
40
0
40
1
40
1
40
1
10
182.57797956122852
20
-51.78717553615563
30
0
10
182.00498819007373
20
-50.975443124771047
30
0
10
181.14550828589893
20
-50.975443124771047
30
0
0
SPLINE
5
243
100
AcDbEntity
8
0
100
AcDbSpline
70
0
71
2
72
6
73
3
74
0
42
0.000000001
43
0.0000000001
44
0.0000000001
40
0
40
0
40
0
40
1
40
1
40
1
10
181.14550828589893
20
-50.975443124771047
30
0
10
180.29967069282031
20
-50.975443124771047
30
0
10
179.79489564551807
20
-51.691677570342947
30
0
0
SPLINE
5
244
100
AcDbEntity
8
0
100
AcDbSpline
70
0
71
2
72
6
73
3
74
0
42
0.000000001
43
0.0000000001
44
0.0000000001
40
0
40
0
40
0
40
1
40
1
40
1
10
179.79489564551807
20
-51.691677570342947
30
0
10
179.16051625861621
20
-52.605729699134756
30
0
10
179.16051625861621
20
-55.068212747573781
30
0
0
LINE
5
245
100
AcDbEntity
8
0
100
AcDbLine
10
109.01044726027941
20
-59.999999999999929
30
0
11
109.01044726027941
21
-57.605730295181203
31
0
0
LINE
5
246
100
AcDbEntity
8
0
100
AcDbLine
10
109.01044726027941
20
-57.605730295181203
30
0
11
104.67211246146654
21
-57.605730295181203
31
0
0
LINE
5
247
100
AcDbEntity
8
0
100
AcDbLine
10
104.67211246146654
20
-57.605730295181203
30
0
11
104.67211246146654
21
-56.480218172073293
31
0
0
LINE
5
248
100
AcDbEntity
8
0
100
AcDbLine
10
104.67211246146654
20
-56.480218172073293
30
0
11
109.23555016173815
21
-49.999999999999929
31
0
0
LINE
5
249
100
AcDbEntity
8
0
100
AcDbLine
10
109.23555016173815
20
-49.999999999999929
30
0
11
110.23827790870165
21
-49.999999999999929
31
0
0
LINE
5
250
100
AcDbEntity
8
0
100
AcDbLine
10
110.23827790870165
20
-49.999999999999929
30
0
11
110.23827790870165
21
-56.480218172073293
31
0
0
LINE
5
251
100
AcDbEntity
8
0
100
AcDbLine
10
110.23827790870165
20
-56.480218172073293
30
0
11
111.5888929332683
21
-56.480218172073293
31
0
0
LINE
5
252
100
AcDbEntity
8
0
100
AcDbLine
10
111.5888929332683
20
-56.480218172073293
30
0
11
111.5888929332683
21
-57.605730295181203
31
0
0
LINE
5
253
100
AcDbEntity
8
0
100
AcDbLine
10
111.5888929332683
20
-57.605730295181203
30
0
11
110.23827790870165
21
-57.605730295181203
31
0
0
LINE
5
254
100
AcDbEntity
8
0
100
AcDbLine
10
110.23827790870165
20
-57.605730295181203
30
0
11
110.23827790870165
21
-59.999999999999929
31
0
0
LINE
5
255
100
AcDbEntity
8
0
100
AcDbLine
10
110.23827790870165
20
-59.999999999999929
30
0
11
109.01044726027941
21
-59.999999999999929
31
0
0
LINE
5
256
100
AcDbEntity
8
0
100
AcDbLine
10
109.01044726027941
20
-56.480218172073293
30
0
11
109.01044726027941
21
-51.9713503122329
31
0
0
LINE
5
257
100
AcDbEntity
8
0
100
AcDbLine
10
109.01044726027941
20
-51.9713503122329
30
0
11
105.87947964324449
21
-56.480218172073293
31
0
0
LINE
5
258
100
AcDbEntity
8
0
100
AcDbLine
10
105.87947964324449
20
-56.480218172073293
30
0
11
109.01044726027941
21
-56.480218172073293
31
0
0
LINE
5
259
100
AcDbEntity
8
0
100
AcDbLine
10
112.84400701179003
20
-57.380627393722463
30
0
11
114.13323163642382
21
-57.271486520767141
31
0
0
SPLINE
5
260
100
AcDbEntity
8
0
100
AcDbSpline
70
0
71
2
72
6
73
3
74
0
42
0.000000001
43
0.0000000001
44
0.0000000001
40
0
40
0
40
0
40
1
40
1
40
1
10
114.13323163642382
20
-57.271486520767141
30
0
10
114.27647828711962
20
-58.212823867797781
30
0
10
114.79489564551805
20
-58.690313100814748
30
0
0
SPLINE
5
261
100
AcDbEntity
8
0
100
AcDbSpline
70
0
71
2
72
6
73
3
74
0
42
0.000000001
43
0.0000000001
44
0.0000000001
40
0
40
0
40
0
40
1
40
1
40
1
10
114.79489564551805
20
-58.690313100814748
30
0
10
115.3201317752788
20
-59.160982370376516
30
0
10
116.05683087958788
20
-59.160982370376516
30
0
0
SPLINE
5
262
100
AcDbEntity
8
0
100
AcDbSpline
70
0
71
2
72
6
73
3
74
0
42
0.000000001
43
0.0000000001
44
0.0000000001
40
0
40
0
40
0
40
1
40
1
40
1
10
116.05683087958788
20
-59.160982370376516
30
0
10
116.94360017432665
20
-59.160982370376516
30
0
10
117.55751371039842
20
-58.492496013641286
30
0
0
SPLINE
5
263
100
AcDbEntity
8
0
100
AcDbSpline
70
0
71
2
72
6
73
3
74
0
42
0.000000001
43
0.0000000001
44
0.0000000001
40
0
40
0
40
0
40
1
40
1
40
1
10
117.55751371039842
20
-58.492496013641286
30
0
10
118.17142963065599
20
-57.824010848998952
30
0
10
118.17142963065599
20
-56.718962788581777
30
0
0
SPLINE
5
264
100
AcDbEntity
8
0
100
AcDbSpline
70
0
71
2
72
6
73
3
74
0
42
0.000000001
43
0.0000000001
44
0.0000000001
40
0
40
0
40
0
40
1
40
1
40
1
10
118.17142963065599
20
-56.718962788581777
30
0
10
118.17142963065599
20
-55.668485164642263
30
0
10
117.5779795612285
20
-55.061391592025686
30
0
0
SPLINE
5
265
100
AcDbEntity
8
0
100
AcDbSpline
70
0
71
2
72
6
73
3
74
0
42
0.000000001
43
0.0000000001
44
0.0000000001
40
0
40
0
40
0
40
1
40
1
40
1
10
117.5779795612285
20
-55.061391592025686
30
0
10
116.99134587897753
20
-54.454296827316213
30
0
10
116.03636979712938
20
-54.454296827316213
30
0
0
SPLINE
5
266
100
AcDbEntity
8
0
100
AcDbSpline
70
0
71
2
72
6
73
3
74
0
42
0.000000001
43
0.0000000001
44
0.0000000001
40
0
40
0
40
0
40
1
40
1
40
1
10
116.03636979712938
20
-54.454296827316213
30
0
10
115.4429173435161
20
-54.454296827316213
30
0
10
114.96542691840624
20
-54.727147817611623
30
0
0
SPLINE
5
267
100
AcDbEntity
8
0
100
AcDbSpline
70
0
71
2
72
6
73
3
74
0
42
0.000000001
43
0.0000000001
44
0.0000000001
40
0
40
0
40
0
40
1
40
1
40
1
10
114.96542691840624
20
-54.727147817611623
30
0
10
114.48793649329637
20
-54.993178248405385
30
0
10
114.21508550300096
20
-55.422918796539236
30
0
0
LINE
5
268
100
AcDbEntity
8
0
100
AcDbLine
10
114.21508550300096
20
-55.422918796539236
30
0
11
113.06228875770067
21
-55.272850990295339
31
0
0
LINE
5
269
100
AcDbEntity
8
0
100
AcDbLine
10
113.06228875770067
20
-55.272850990295339
30
0
11
114.03091191901659
21
-50.136424303054739
31
0
0
LINE
5
270
100
AcDbEntity
8
0
100
AcDbLine
10
114.03091191901659
20
-50.136424303054739
30
0
11
119.00362729682421
21
-50.136424303054739
31
0
0
LINE
5
271
100
AcDbEntity
8
0
100
AcDbLine
10
119.00362729682421
20
-50.136424303054739
30
0
11
119.00362729682421
21
-51.309685111045766
31
0
0
LINE
5
272
100
AcDbEntity
8
0
100
AcDbLine
10
119.00362729682421
20
-51.309685111045766
30
0
11
115.0131773914287
21
-51.309685111045766
31
0
0
LINE
5
273
100
AcDbEntity
8
0
100
AcDbLine
10
115.0131773914287
20
-51.309685111045766
30
0
11
114.47429418220018
21
-53.997270464897085
31
0
0
SPLINE
5
274
100
AcDbEntity
8
0
100
AcDbSpline
70
0
71
2
72
6
73
3
74
0
42
0.000000001
43
0.0000000001
44
0.0000000001
40
0
40
0
40
0
40
1
40
1
40
1
10
114.47429418220018
20
-53.997270464897085
30
0
10
115.37470340384935
20
-53.369712829589773
30
0
10
116.36379003180956
20
-53.369712829589773
30
0
0
SPLINE
5
275
100
AcDbEntity
8
0
100
AcDbSpline
70
0
71
2
72
6
73
3
74
0
42
0.000000001
43
0.0000000001
44
0.0000000001
40
0
40
0
40
0
40
1
40
1
40
1
10
116.36379003180956
20
-53.369712829589773
30
0
10
117.67347573890184
20
-53.369712829589773
30
0
10
118.5738873447368
20
-54.276943206787038
30
0
0
SPLINE
5
276
100
AcDbEntity
8
0
100
AcDbSpline
70
0
71
2
72
6
73
3
74
0
42
0.000000001
43
0.0000000001
44
0.0000000001
40
0
40
0
40
0
40
1
40
1
40
1
10
118.5738873447368
20
-54.276943206787038
30
0
10
119.47429418220018
20
-55.184174180030752
30
0
10
119.47429418220018
20
-56.609822511672903
30
0
0
SPLINE
5
277
100
AcDbEntity
8
0
100
AcDbSpline
70
0
71
2
72
6
73
3
74
0
42
0.000000001
43
0.0000000001
44
0.0000000001
40
0
40
0
40
0
40
1
40
1
40
1
10
119.47429418220018
20
-56.609822511672903
30
0
10
119.47429418220018
20
-57.967257499694753
30
0
10
118.68302583350633
20
-58.956344127654958
30
0
0
SPLINE
5
278
100
AcDbEntity
8
0
100
AcDbSpline
70
0
71
2
72
6
73
3
74
0
42
0.000000001
43
0.0000000001
44
0.0000000001
40
0
40
0
40
0
40
1
40
1
40
1
10
118.68302583350633
20
-58.956344127654958
30
0
10
117.7212262119243
20
-60.170532464981008
30
0
10
116.05683087958788
20
-60.170532464981008
30
0
0
SPLINE
5
279
100
AcDbEntity
8
0
100
AcDbSpline
70
0
71
2
72
6
73
3
74
0
42
0.000000001
43
0.0000000001
44
0.0000000001
40
0
40
0
40
0
40
1
40
1
40
1
10
116.05683087958788
20
-60.170532464981008
30
0
10
114.69257592811083
20
-60.170532464981008
30
0
10
113.82627248420214
20
-59.406548738479543
30
0
0
SPLINE
5
280
100
AcDbEntity
8
0
100
AcDbSpline
70
0
71
2
72
6
73
3
74
0
42
0.000000001
43
0.0000000001
44
0.0000000001
40
0
40
0
40
0
40
1
40
1
40
1
10
113.82627248420214
20
-59.406548738479543
30
0
10
112.96679258002733
20
-58.642565011978078
30
0
10
112.84400701179003
20
-57.380627393722463
30
0
0
ENDSEC
0
SECTION
2
OBJECTS
0
DICTIONARY
5
C
100
AcDbDictionary
3
ACAD_GROUP
350
D
3
ACAD_MLINESTYLE
350
17
0
DICTIONARY
5
D
100
AcDbDictionary
0
DICTIONARY
5
1A
330
C
100
AcDbDictionary
0
DICTIONARY
5
17
100
AcDbDictionary
0
ENDSEC
0
EOF
