0
SECTION
2
HEADER
9
$INSUNITS
70
4
9
$ACADVER
1
AC1014
9
$HANDSEED
5
FFFF
0
ENDSEC
0
SECTION
2
TABLES
0
TABLE
2
VPORT
5
8
100
AcDbSymbolTable
0
ENDTAB
0
TABLE
2
LTYPE
5
5
100
AcDbSymbolTable
0
LTYPE
5
14
100
AcDbSymbolTableRecord
100
AcDbLinetypeTableRecord
2
BYBLOCK
70
0
0
LTYPE
5
15
100
AcDbSymbolTableRecord
100
AcDbLinetypeTableRecord
2
BYLAYER
70
0
0
ENDTAB
0
TABLE
2
LAYER
5
2
100
AcDbSymbolTable
70
2
0
LAYER
5
50
100
AcDbSymbolTableRecord
100
AcDbLayerTableRecord
2
0
70
0
6
CONTINUOUS
0
ENDTAB
0
TABLE
2
STYLE
5
3
100
AcDbSymbolTable
70
1
0
STYLE
5
11
100
AcDbSymbolTableRecord
100
AcDbTextStyleTableRecord
2
STANDARD
70
0
0
ENDTAB
0
TABLE
2
VIEW
5
6
100
AcDbSymbolTable
70
0
0
ENDTAB
0
TABLE
2
UCS
5
7
100
AcDbSymbolTable
70
0
0
ENDTAB
0
TABLE
2
APPID
5
9
100
AcDbSymbolTable
70
2
0
APPID
5
12
100
AcDbSymbolTableRecord
100
AcDbRegAppTableRecord
2
ACAD
70
0
0
ENDTAB
0
TABLE
2
DIMSTYLE
5
A
100
AcDbSymbolTable
70
1
0
ENDTAB
0
TABLE
2
BLOCK_RECORD
5
1
100
AcDbSymbolTable
70
1
0
BLOCK_RECORD
5
1F
100
AcDbSymbolTableRecord
100
AcDbBlockTableRecord
2
*MODEL_SPACE
0
BLOCK_RECORD
5
1B
100
AcDbSymbolTableRecord
100
AcDbBlockTableRecord
2
*PAPER_SPACE
0
ENDTAB
0
ENDSEC
0
SECTION
2
BLOCKS
0
BLOCK
5
20
100
AcDbEntity
100
AcDbBlockBegin
2
*MODEL_SPACE
0
ENDBLK
5
21
100
AcDbEntity
100
AcDbBlockEnd
0
BLOCK
5
1C
100
AcDbEntity
100
AcDbBlockBegin
2
*PAPER_SPACE
0
ENDBLK
5
1D
100
AcDbEntity
100
AcDbBlockEnd
0
ENDSEC
0
SECTION
2
ENTITIES
0
LWPOLYLINE
5
100
100
AcDbEntity
8
0
100
AcDbPolyline
90
4
70
1
43
0.0
10
-56
20
45.504328737680986
10
-75
20
45.504328737680986
10
-75
20
26.504328737680986
10
-56
20
26.504328737680986
0
LWPOLYLINE
5
101
100
AcDbEntity
8
0
100
AcDbPolyline
90
4
70
1
43
0.0
10
-29.999999999999996
20
45.504328737680986
10
-49
20
45.504328737680986
10
-49
20
26.504328737680986
10
-29.999999999999996
20
26.504328737680986
0
LWPOLYLINE
5
102
100
AcDbEntity
8
0
100
AcDbPolyline
90
4
70
1
43
0.0
10
-3.9999999999999947
20
45.504328737680986
10
-23
20
45.504328737680986
10
-23
20
26.504328737680986
10
-3.9999999999999947
20
26.504328737680986
0
LWPOLYLINE
5
103
100
AcDbEntity
8
0
100
AcDbPolyline
90
4
70
1
43
0.0
10
22.000000000000011
20
45.504328737680986
10
3.0000000000000071
20
45.504328737680986
10
3.0000000000000071
20
26.504328737680986
10
22.000000000000011
20
26.504328737680986
0
LWPOLYLINE
5
104
100
AcDbEntity
8
0
100
AcDbPolyline
90
4
70
1
43
0.0
10
48.000000000000007
20
45.504328737680986
10
29.000000000000004
20
45.504328737680986
10
29.000000000000004
20
26.504328737680986
10
48.000000000000007
20
26.504328737680986
0
LWPOLYLINE
5
105
100
AcDbEntity
8
0
100
AcDbPolyline
90
4
70
1
43
0.0
10
74
20
45.504328737680986
10
55
20
45.504328737680986
10
55
20
26.504328737680986
10
74
20
26.504328737680986
0
LWPOLYLINE
5
106
100
AcDbEntity
8
0
100
AcDbPolyline
90
4
70
1
43
0.0
10
100.00000000000001
20
45.504328737680986
10
81.000000000000014
20
45.504328737680986
10
81.000000000000014
20
26.504328737680986
10
100.00000000000001
20
26.504328737680986
0
LWPOLYLINE
5
107
100
AcDbEntity
8
0
100
AcDbPolyline
90
4
70
1
43
0.0
10
126
20
45.504328737680986
10
107
20
45.504328737680986
10
107
20
26.504328737680986
10
126
20
26.504328737680986
0
LWPOLYLINE
5
108
100
AcDbEntity
8
0
100
AcDbPolyline
90
4
70
1
43
0.0
10
152
20
45.504328737680986
10
133
20
45.504328737680986
10
133
20
26.504328737680986
10
152
20
26.504328737680986
0
LWPOLYLINE
5
109
100
AcDbEntity
8
0
100
AcDbPolyline
90
4
70
1
43
0.0
10
178.00000000000006
20
45.504328737680986
10
159.00000000000003
20
45.504328737680986
10
159.00000000000003
20
26.504328737680986
10
178.00000000000006
20
26.504328737680986
0
LWPOLYLINE
5
110
100
AcDbEntity
8
0
100
AcDbPolyline
90
4
70
1
43
0.0
10
-56
20
19.504328737680986
10
-75
20
19.504328737680986
10
-75
20
0.50432873768098574
10
-56
20
0.50432873768098574
0
LWPOLYLINE
5
111
100
AcDbEntity
8
0
100
AcDbPolyline
90
4
70
1
43
0.0
10
-29.999999999999996
20
19.504328737680986
10
-49
20
19.504328737680986
10
-49
20
0.50432873768098574
10
-29.999999999999996
20
0.50432873768098574
0
LWPOLYLINE
5
112
100
AcDbEntity
8
0
100
AcDbPolyline
90
4
70
1
43
0.0
10
-3.9999999999999947
20
19.504328737680986
10
-23
20
19.504328737680986
10
-23
20
0.50432873768098574
10
-3.9999999999999947
20
0.50432873768098574
0
LWPOLYLINE
5
113
100
AcDbEntity
8
0
100
AcDbPolyline
90
4
70
1
43
0.0
10
22.000000000000011
20
19.504328737680986
10
3.0000000000000071
20
19.504328737680986
10
3.0000000000000071
20
0.50432873768098574
10
22.000000000000011
20
0.50432873768098574
0
LWPOLYLINE
5
114
100
AcDbEntity
8
0
100
AcDbPolyline
90
4
70
1
43
0.0
10
48.000000000000007
20
19.504328737680986
10
29.000000000000004
20
19.504328737680986
10
29.000000000000004
20
0.50432873768098574
10
48.000000000000007
20
0.50432873768098574
0
LWPOLYLINE
5
115
100
AcDbEntity
8
0
100
AcDbPolyline
90
4
70
1
43
0.0
10
74
20
19.504328737680986
10
55
20
19.504328737680986
10
55
20
0.50432873768098574
10
74
20
0.50432873768098574
0
LWPOLYLINE
5
116
100
AcDbEntity
8
0
100
AcDbPolyline
90
4
70
1
43
0.0
10
100.00000000000001
20
19.504328737680986
10
81.000000000000014
20
19.504328737680986
10
81.000000000000014
20
0.50432873768098574
10
100.00000000000001
20
0.50432873768098574
0
LWPOLYLINE
5
117
100
AcDbEntity
8
0
100
AcDbPolyline
90
4
70
1
43
0.0
10
126
20
19.504328737680986
10
107
20
19.504328737680986
10
107
20
0.50432873768098574
10
126
20
0.50432873768098574
0
LWPOLYLINE
5
118
100
AcDbEntity
8
0
100
AcDbPolyline
90
4
70
1
43
0.0
10
152
20
19.504328737680986
10
133
20
19.504328737680986
10
133
20
0.50432873768098574
10
152
20
0.50432873768098574
0
LWPOLYLINE
5
119
100
AcDbEntity
8
0
100
AcDbPolyline
90
4
70
1
43
0.0
10
178.00000000000006
20
19.504328737680986
10
159.00000000000003
20
19.504328737680986
10
159.00000000000003
20
0.50432873768098574
10
178.00000000000006
20
0.50432873768098574
0
LWPOLYLINE
5
120
100
AcDbEntity
8
0
100
AcDbPolyline
90
4
70
1
43
0.0
10
-56
20
-6.495671262319016
10
-75
20
-6.495671262319016
10
-75
20
-25.495671262319014
10
-56
20
-25.495671262319014
0
LWPOLYLINE
5
121
100
AcDbEntity
8
0
100
AcDbPolyline
90
4
70
1
43
0.0
10
-29.999999999999996
20
-6.495671262319016
10
-49
20
-6.495671262319016
10
-49
20
-25.495671262319014
10
-29.999999999999996
20
-25.495671262319014
0
LWPOLYLINE
5
122
100
AcDbEntity
8
0
100
AcDbPolyline
90
4
70
1
43
0.0
10
-3.9999999999999947
20
-6.495671262319016
10
-23
20
-6.495671262319016
10
-23
20
-25.495671262319014
10
-3.9999999999999947
20
-25.495671262319014
0
LWPOLYLINE
5
123
100
AcDbEntity
8
0
100
AcDbPolyline
90
4
70
1
43
0.0
10
22.000000000000011
20
-6.495671262319016
10
3.0000000000000071
20
-6.495671262319016
10
3.0000000000000071
20
-25.495671262319014
10
22.000000000000011
20
-25.495671262319014
0
LWPOLYLINE
5
124
100
AcDbEntity
8
0
100
AcDbPolyline
90
4
70
1
43
0.0
10
48.000000000000007
20
-6.495671262319016
10
29.000000000000004
20
-6.495671262319016
10
29.000000000000004
20
-25.495671262319014
10
48.000000000000007
20
-25.495671262319014
0
LWPOLYLINE
5
125
100
AcDbEntity
8
0
100
AcDbPolyline
90
4
70
1
43
0.0
10
74
20
-6.495671262319016
10
55
20
-6.495671262319016
10
55
20
-25.495671262319014
10
74
20
-25.495671262319014
0
LWPOLYLINE
5
126
100
AcDbEntity
8
0
100
AcDbPolyline
90
4
70
1
43
0.0
10
100.00000000000001
20
-6.495671262319016
10
81.000000000000014
20
-6.495671262319016
10
81.000000000000014
20
-25.495671262319014
10
100.00000000000001
20
-25.495671262319014
0
LWPOLYLINE
5
127
100
AcDbEntity
8
0
100
AcDbPolyline
90
4
70
1
43
0.0
10
126
20
-6.495671262319016
10
107
20
-6.495671262319016
10
107
20
-25.495671262319014
10
126
20
-25.495671262319014
0
LWPOLYLINE
5
128
100
AcDbEntity
8
0
100
AcDbPolyline
90
4
70
1
43
0.0
10
152
20
-6.495671262319016
10
133
20
-6.495671262319016
10
133
20
-25.495671262319014
10
152
20
-25.495671262319014
0
LWPOLYLINE
5
129
100
AcDbEntity
8
0
100
AcDbPolyline
90
4
70
1
43
0.0
10
178.00000000000006
20
-6.495671262319016
10
159.00000000000003
20
-6.495671262319016
10
159.00000000000003
20
-25.495671262319014
10
178.00000000000006
20
-25.495671262319014
0
LWPOLYLINE
5
130
100
AcDbEntity
8
0
100
AcDbPolyline
90
4
70
1
43
0.0
10
-56
20
-32.495671262319021
10
-75
20
-32.495671262319021
10
-75
20
-51.495671262319021
10
-56
20
-51.495671262319021
0
LWPOLYLINE
5
131
100
AcDbEntity
8
0
100
AcDbPolyline
90
4
70
1
43
0.0
10
-29.999999999999996
20
-32.495671262319021
10
-49
20
-32.495671262319021
10
-49
20
-51.495671262319021
10
-29.999999999999996
20
-51.495671262319021
0
LWPOLYLINE
5
132
100
AcDbEntity
8
0
100
AcDbPolyline
90
4
70
1
43
0.0
10
-3.9999999999999947
20
-32.495671262319021
10
-23
20
-32.495671262319021
10
-23
20
-51.495671262319021
10
-3.9999999999999947
20
-51.495671262319021
0
LWPOLYLINE
5
133
100
AcDbEntity
8
0
100
AcDbPolyline
90
4
70
1
43
0.0
10
22.000000000000011
20
-32.495671262319021
10
3.0000000000000071
20
-32.495671262319021
10
3.0000000000000071
20
-51.495671262319021
10
22.000000000000011
20
-51.495671262319021
0
LWPOLYLINE
5
134
100
AcDbEntity
8
0
100
AcDbPolyline
90
4
70
1
43
0.0
10
48.000000000000007
20
-32.495671262319021
10
29.000000000000004
20
-32.495671262319021
10
29.000000000000004
20
-51.495671262319021
10
48.000000000000007
20
-51.495671262319021
0
LWPOLYLINE
5
135
100
AcDbEntity
8
0
100
AcDbPolyline
90
4
70
1
43
0.0
10
74
20
-32.495671262319021
10
55
20
-32.495671262319021
10
55
20
-51.495671262319021
10
74
20
-51.495671262319021
0
LWPOLYLINE
5
136
100
AcDbEntity
8
0
100
AcDbPolyline
90
4
70
1
43
0.0
10
100.00000000000001
20
-32.495671262319021
10
81.000000000000014
20
-32.495671262319021
10
81.000000000000014
20
-51.495671262319021
10
100.00000000000001
20
-51.495671262319021
0
LWPOLYLINE
5
137
100
AcDbEntity
8
0
100
AcDbPolyline
90
4
70
1
43
0.0
10
126
20
-32.495671262319021
10
107
20
-32.495671262319021
10
107
20
-51.495671262319021
10
126
20
-51.495671262319021
0
LWPOLYLINE
5
138
100
AcDbEntity
8
0
100
AcDbPolyline
90
4
70
1
43
0.0
10
152
20
-32.495671262319021
10
133
20
-32.495671262319021
10
133
20
-51.495671262319021
10
152
20
-51.495671262319021
0
LWPOLYLINE
5
139
100
AcDbEntity
8
0
100
AcDbPolyline
90
4
70
1
43
0.0
10
178.00000000000006
20
-32.495671262319021
10
159.00000000000003
20
-32.495671262319021
10
159.00000000000003
20
-51.495671262319021
10
178.00000000000006
20
-51.495671262319021
0
LWPOLYLINE
5
140
100
AcDbEntity
8
0
100
AcDbPolyline
90
4
70
1
43
0.0
10
-56
20
-58.495671262319021
10
-75
20
-58.495671262319021
10
-75
20
-77.495671262319021
10
-56
20
-77.495671262319021
0
LWPOLYLINE
5
141
100
AcDbEntity
8
0
100
AcDbPolyline
90
4
70
1
43
0.0
10
-29.999999999999996
20
-58.495671262319021
10
-49
20
-58.495671262319021
10
-49
20
-77.495671262319021
10
-29.999999999999996
20
-77.495671262319021
0
LWPOLYLINE
5
142
100
AcDbEntity
8
0
100
AcDbPolyline
90
4
70
1
43
0.0
10
-3.9999999999999947
20
-58.495671262319021
10
-23
20
-58.495671262319021
10
-23
20
-77.495671262319021
10
-3.9999999999999947
20
-77.495671262319021
0
LWPOLYLINE
5
143
100
AcDbEntity
8
0
100
AcDbPolyline
90
4
70
1
43
0.0
10
22.000000000000011
20
-58.495671262319021
10
3.0000000000000071
20
-58.495671262319021
10
3.0000000000000071
20
-77.495671262319021
10
22.000000000000011
20
-77.495671262319021
0
LWPOLYLINE
5
144
100
AcDbEntity
8
0
100
AcDbPolyline
90
4
70
1
43
0.0
10
48.000000000000007
20
-58.495671262319021
10
29.000000000000004
20
-58.495671262319021
10
29.000000000000004
20
-77.495671262319021
10
48.000000000000007
20
-77.495671262319021
0
LWPOLYLINE
5
145
100
AcDbEntity
8
0
100
AcDbPolyline
90
4
70
1
43
0.0
10
74
20
-58.495671262319021
10
55
20
-58.495671262319021
10
55
20
-77.495671262319021
10
74
20
-77.495671262319021
0
LWPOLYLINE
5
146
100
AcDbEntity
8
0
100
AcDbPolyline
90
4
70
1
43
0.0
10
100.00000000000001
20
-58.495671262319021
10
81.000000000000014
20
-58.495671262319021
10
81.000000000000014
20
-77.495671262319021
10
100.00000000000001
20
-77.495671262319021
0
LWPOLYLINE
5
147
100
AcDbEntity
8
0
100
AcDbPolyline
90
4
70
1
43
0.0
10
126
20
-58.495671262319021
10
107
20
-58.495671262319021
10
107
20
-77.495671262319021
10
126
20
-77.495671262319021
0
LWPOLYLINE
5
148
100
AcDbEntity
8
0
100
AcDbPolyline
90
4
70
1
43
0.0
10
152
20
-58.495671262319021
10
133
20
-58.495671262319021
10
133
20
-77.495671262319021
10
152
20
-77.495671262319021
0
LWPOLYLINE
5
149
100
AcDbEntity
8
0
100
AcDbPolyline
90
4
70
1
43
0.0
10
178.00000000000006
20
-58.495671262319021
10
159.00000000000003
20
-58.495671262319021
10
159.00000000000003
20
-77.495671262319021
10
178.00000000000006
20
-77.495671262319021
0
LWPOLYLINE
5
150
100
AcDbEntity
8
0
100
AcDbPolyline
90
4
70
1
43
0.0
10
-56
20
-84.495671262319007
10
-75
20
-84.495671262319007
10
-75
20
-103.49567126231902
10
-56
20
-103.49567126231902
0
LWPOLYLINE
5
151
100
AcDbEntity
8
0
100
AcDbPolyline
90
4
70
1
43
0.0
10
-29.999999999999996
20
-84.495671262319007
10
-49
20
-84.495671262319007
10
-49
20
-103.49567126231902
10
-29.999999999999996
20
-103.49567126231902
0
LWPOLYLINE
5
152
100
AcDbEntity
8
0
100
AcDbPolyline
90
4
70
1
43
0.0
10
-3.9999999999999947
20
-84.495671262319007
10
-23
20
-84.495671262319007
10
-23
20
-103.49567126231902
10
-3.9999999999999947
20
-103.49567126231902
0
LWPOLYLINE
5
153
100
AcDbEntity
8
0
100
AcDbPolyline
90
4
70
1
43
0.0
10
22.000000000000011
20
-84.495671262319007
10
3.0000000000000071
20
-84.495671262319007
10
3.0000000000000071
20
-103.49567126231902
10
22.000000000000011
20
-103.49567126231902
0
LWPOLYLINE
5
154
100
AcDbEntity
8
0
100
AcDbPolyline
90
4
70
1
43
0.0
10
48.000000000000007
20
-84.495671262319007
10
29.000000000000004
20
-84.495671262319007
10
29.000000000000004
20
-103.49567126231902
10
48.000000000000007
20
-103.49567126231902
0
LWPOLYLINE
5
155
100
AcDbEntity
8
0
100
AcDbPolyline
90
4
70
1
43
0.0
10
74
20
-84.495671262319007
10
55
20
-84.495671262319007
10
55
20
-103.49567126231902
10
74
20
-103.49567126231902
0
LWPOLYLINE
5
156
100
AcDbEntity
8
0
100
AcDbPolyline
90
4
70
1
43
0.0
10
100.00000000000001
20
-84.495671262319007
10
81.000000000000014
20
-84.495671262319007
10
81.000000000000014
20
-103.49567126231902
10
100.00000000000001
20
-103.49567126231902
0
LWPOLYLINE
5
157
100
AcDbEntity
8
0
100
AcDbPolyline
90
4
70
1
43
0.0
10
126
20
-84.495671262319007
10
107
20
-84.495671262319007
10
107
20
-103.49567126231902
10
126
20
-103.49567126231902
0
LWPOLYLINE
5
158
100
AcDbEntity
8
0
100
AcDbPolyline
90
4
70
1
43
0.0
10
152
20
-84.495671262319007
10
133
20
-84.495671262319007
10
133
20
-103.49567126231902
10
152
20
-103.49567126231902
0
LWPOLYLINE
5
159
100
AcDbEntity
8
0
100
AcDbPolyline
90
4
70
1
43
0.0
10
178.00000000000006
20
-84.495671262319007
10
159.00000000000003
20
-84.495671262319007
10
159.00000000000003
20
-103.49567126231902
10
178.00000000000006
20
-103.49567126231902
0
LWPOLYLINE
5
160
100
AcDbEntity
8
0
100
AcDbPolyline
90
4
70
1
43
0.0
10
-56
20
-110.49567126231904
10
-75
20
-110.49567126231904
10
-75
20
-129.49567126231904
10
-56
20
-129.49567126231904
0
LWPOLYLINE
5
161
100
AcDbEntity
8
0
100
AcDbPolyline
90
4
70
1
43
0.0
10
-29.999999999999996
20
-110.49567126231904
10
-49
20
-110.49567126231904
10
-49
20
-129.49567126231904
10
-29.999999999999996
20
-129.49567126231904
0
LWPOLYLINE
5
162
100
AcDbEntity
8
0
100
AcDbPolyline
90
4
70
1
43
0.0
10
-3.9999999999999947
20
-110.49567126231904
10
-23
20
-110.49567126231904
10
-23
20
-129.49567126231904
10
-3.9999999999999947
20
-129.49567126231904
0
LWPOLYLINE
5
163
100
AcDbEntity
8
0
100
AcDbPolyline
90
4
70
1
43
0.0
10
22.000000000000011
20
-110.49567126231904
10
3.0000000000000071
20
-110.49567126231904
10
3.0000000000000071
20
-129.49567126231904
10
22.000000000000011
20
-129.49567126231904
0
LWPOLYLINE
5
164
100
AcDbEntity
8
0
100
AcDbPolyline
90
4
70
1
43
0.0
10
48.000000000000007
20
-110.49567126231904
10
29.000000000000004
20
-110.49567126231904
10
29.000000000000004
20
-129.49567126231904
10
48.000000000000007
20
-129.49567126231904
0
LWPOLYLINE
5
165
100
AcDbEntity
8
0
100
AcDbPolyline
90
4
70
1
43
0.0
10
74
20
-110.49567126231904
10
55
20
-110.49567126231904
10
55
20
-129.49567126231904
10
74
20
-129.49567126231904
0
LWPOLYLINE
5
166
100
AcDbEntity
8
0
100
AcDbPolyline
90
4
70
1
43
0.0
10
100.00000000000001
20
-110.49567126231904
10
81.000000000000014
20
-110.49567126231904
10
81.000000000000014
20
-129.49567126231904
10
100.00000000000001
20
-129.49567126231904
0
LWPOLYLINE
5
167
100
AcDbEntity
8
0
100
AcDbPolyline
90
4
70
1
43
0.0
10
126
20
-110.49567126231904
10
107
20
-110.49567126231904
10
107
20
-129.49567126231904
10
126
20
-129.49567126231904
0
LWPOLYLINE
5
168
100
AcDbEntity
8
0
100
AcDbPolyline
90
4
70
1
43
0.0
10
152
20
-110.49567126231904
10
133
20
-110.49567126231904
10
133
20
-129.49567126231904
10
152
20
-129.49567126231904
0
LWPOLYLINE
5
169
100
AcDbEntity
8
0
100
AcDbPolyline
90
4
70
1
43
0.0
10
178.00000000000006
20
-110.49567126231904
10
159.00000000000003
20
-110.49567126231904
10
159.00000000000003
20
-129.49567126231904
10
178.00000000000006
20
-129.49567126231904
0
LWPOLYLINE
5
170
100
AcDbEntity
8
0
100
AcDbPolyline
90
4
70
1
43
0.0
10
-56
20
-136.49567126231901
10
-75
20
-136.49567126231901
10
-75
20
-155.49567126231901
10
-56
20
-155.49567126231901
0
LWPOLYLINE
5
171
100
AcDbEntity
8
0
100
AcDbPolyline
90
4
70
1
43
0.0
10
-29.999999999999996
20
-136.49567126231901
10
-49
20
-136.49567126231901
10
-49
20
-155.49567126231901
10
-29.999999999999996
20
-155.49567126231901
0
LWPOLYLINE
5
172
100
AcDbEntity
8
0
100
AcDbPolyline
90
4
70
1
43
0.0
10
-3.9999999999999947
20
-136.49567126231901
10
-23
20
-136.49567126231901
10
-23
20
-155.49567126231901
10
-3.9999999999999947
20
-155.49567126231901
0
LWPOLYLINE
5
173
100
AcDbEntity
8
0
100
AcDbPolyline
90
4
70
1
43
0.0
10
22.000000000000011
20
-136.49567126231901
10
3.0000000000000071
20
-136.49567126231901
10
3.0000000000000071
20
-155.49567126231901
10
22.000000000000011
20
-155.49567126231901
0
LWPOLYLINE
5
174
100
AcDbEntity
8
0
100
AcDbPolyline
90
4
70
1
43
0.0
10
48.000000000000007
20
-136.49567126231901
10
29.000000000000004
20
-136.49567126231901
10
29.000000000000004
20
-155.49567126231901
10
48.000000000000007
20
-155.49567126231901
0
LWPOLYLINE
5
175
100
AcDbEntity
8
0
100
AcDbPolyline
90
4
70
1
43
0.0
10
74
20
-136.49567126231901
10
55
20
-136.49567126231901
10
55
20
-155.49567126231901
10
74
20
-155.49567126231901
0
LWPOLYLINE
5
176
100
AcDbEntity
8
0
100
AcDbPolyline
90
4
70
1
43
0.0
10
100.00000000000001
20
-136.49567126231901
10
81.000000000000014
20
-136.49567126231901
10
81.000000000000014
20
-155.49567126231901
10
100.00000000000001
20
-155.49567126231901
0
LWPOLYLINE
5
177
100
AcDbEntity
8
0
100
AcDbPolyline
90
4
70
1
43
0.0
10
126
20
-136.49567126231901
10
107
20
-136.49567126231901
10
107
20
-155.49567126231901
10
126
20
-155.49567126231901
0
LWPOLYLINE
5
178
100
AcDbEntity
8
0
100
AcDbPolyline
90
4
70
1
43
0.0
10
152
20
-136.49567126231901
10
133
20
-136.49567126231901
10
133
20
-155.49567126231901
10
152
20
-155.49567126231901
0
LWPOLYLINE
5
179
100
AcDbEntity
8
0
100
AcDbPolyline
90
4
70
1
43
0.0
10
178.00000000000006
20
-136.49567126231901
10
159.00000000000003
20
-136.49567126231901
10
159.00000000000003
20
-155.49567126231901
10
178.00000000000006
20
-155.49567126231901
0
LWPOLYLINE
5
180
100
AcDbEntity
8
0
100
AcDbPolyline
90
4
70
1
43
0.0
10
-56
20
-162.49567126231904
10
-75
20
-162.49567126231904
10
-75
20
-181.49567126231904
10
-56
20
-181.49567126231904
0
LWPOLYLINE
5
181
100
AcDbEntity
8
0
100
AcDbPolyline
90
4
70
1
43
0.0
10
-29.999999999999996
20
-162.49567126231904
10
-49
20
-162.49567126231904
10
-49
20
-181.49567126231904
10
-29.999999999999996
20
-181.49567126231904
0
LWPOLYLINE
5
182
100
AcDbEntity
8
0
100
AcDbPolyline
90
4
70
1
43
0.0
10
-3.9999999999999947
20
-162.49567126231904
10
-23
20
-162.49567126231904
10
-23
20
-181.49567126231904
10
-3.9999999999999947
20
-181.49567126231904
0
LWPOLYLINE
5
183
100
AcDbEntity
8
0
100
AcDbPolyline
90
4
70
1
43
0.0
10
22.000000000000011
20
-162.49567126231904
10
3.0000000000000071
20
-162.49567126231904
10
3.0000000000000071
20
-181.49567126231904
10
22.000000000000011
20
-181.49567126231904
0
LWPOLYLINE
5
184
100
AcDbEntity
8
0
100
AcDbPolyline
90
4
70
1
43
0.0
10
48.000000000000007
20
-162.49567126231904
10
29.000000000000004
20
-162.49567126231904
10
29.000000000000004
20
-181.49567126231904
10
48.000000000000007
20
-181.49567126231904
0
LWPOLYLINE
5
185
100
AcDbEntity
8
0
100
AcDbPolyline
90
4
70
1
43
0.0
10
74
20
-162.49567126231904
10
55
20
-162.49567126231904
10
55
20
-181.49567126231904
10
74
20
-181.49567126231904
0
LWPOLYLINE
5
186
100
AcDbEntity
8
0
100
AcDbPolyline
90
4
70
1
43
0.0
10
100.00000000000001
20
-162.49567126231904
10
81.000000000000014
20
-162.49567126231904
10
81.000000000000014
20
-181.49567126231904
10
100.00000000000001
20
-181.49567126231904
0
LWPOLYLINE
5
187
100
AcDbEntity
8
0
100
AcDbPolyline
90
4
70
1
43
0.0
10
126
20
-162.49567126231904
10
107
20
-162.49567126231904
10
107
20
-181.49567126231904
10
126
20
-181.49567126231904
0
LWPOLYLINE
5
188
100
AcDbEntity
8
0
100
AcDbPolyline
90
4
70
1
43
0.0
10
152
20
-162.49567126231904
10
133
20
-162.49567126231904
10
133
20
-181.49567126231904
10
152
20
-181.49567126231904
0
LWPOLYLINE
5
189
100
AcDbEntity
8
0
100
AcDbPolyline
90
4
70
1
43
0.0
10
178.00000000000006
20
-162.49567126231904
10
159.00000000000003
20
-162.49567126231904
10
159.00000000000003
20
-181.49567126231904
10
178.00000000000006
20
-181.49567126231904
0
LWPOLYLINE
5
190
100
AcDbEntity
8
0
100
AcDbPolyline
90
4
70
1
43
0.0
10
-56
20
-188.49567126231904
10
-75
20
-188.49567126231904
10
-75
20
-207.49567126231906
10
-56
20
-207.49567126231906
0
LWPOLYLINE
5
191
100
AcDbEntity
8
0
100
AcDbPolyline
90
4
70
1
43
0.0
10
-29.999999999999996
20
-188.49567126231904
10
-49
20
-188.49567126231904
10
-49
20
-207.49567126231906
10
-29.999999999999996
20
-207.49567126231906
0
LWPOLYLINE
5
192
100
AcDbEntity
8
0
100
AcDbPolyline
90
4
70
1
43
0.0
10
-3.9999999999999947
20
-188.49567126231904
10
-23
20
-188.49567126231904
10
-23
20
-207.49567126231906
10
-3.9999999999999947
20
-207.49567126231906
0
LWPOLYLINE
5
193
100
AcDbEntity
8
0
100
AcDbPolyline
90
4
70
1
43
0.0
10
22.000000000000011
20
-188.49567126231904
10
3.0000000000000071
20
-188.49567126231904
10
3.0000000000000071
20
-207.49567126231906
10
22.000000000000011
20
-207.49567126231906
0
LWPOLYLINE
5
194
100
AcDbEntity
8
0
100
AcDbPolyline
90
4
70
1
43
0.0
10
48.000000000000007
20
-188.49567126231904
10
29.000000000000004
20
-188.49567126231904
10
29.000000000000004
20
-207.49567126231906
10
48.000000000000007
20
-207.49567126231906
0
LWPOLYLINE
5
195
100
AcDbEntity
8
0
100
AcDbPolyline
90
4
70
1
43
0.0
10
74
20
-188.49567126231904
10
55
20
-188.49567126231904
10
55
20
-207.49567126231906
10
74
20
-207.49567126231906
0
LWPOLYLINE
5
196
100
AcDbEntity
8
0
100
AcDbPolyline
90
4
70
1
43
0.0
10
100.00000000000001
20
-188.49567126231904
10
81.000000000000014
20
-188.49567126231904
10
81.000000000000014
20
-207.49567126231906
10
100.00000000000001
20
-207.49567126231906
0
LWPOLYLINE
5
197
100
AcDbEntity
8
0
100
AcDbPolyline
90
4
70
1
43
0.0
10
126
20
-188.49567126231904
10
107
20
-188.49567126231904
10
107
20
-207.49567126231906
10
126
20
-207.49567126231906
0
LWPOLYLINE
5
198
100
AcDbEntity
8
0
100
AcDbPolyline
90
4
70
1
43
0.0
10
152
20
-188.49567126231904
10
133
20
-188.49567126231904
10
133
20
-207.49567126231906
10
152
20
-207.49567126231906
0
LWPOLYLINE
5
199
100
AcDbEntity
8
0
100
AcDbPolyline
90
4
70
1
43
0.0
10
178.00000000000006
20
-188.49567126231904
10
159.00000000000003
20
-188.49567126231904
10
159.00000000000003
20
-207.49567126231906
10
178.00000000000006
20
-207.49567126231906
0
LWPOLYLINE
5
200
100
AcDbEntity
8
0
100
AcDbPolyline
90
4
70
1
43
0.0
10
188.00000000000006
20
55.504328737680986
10
-85
20
55.504328737680986
10
-85
20
-217.49567126231906
10
188.00000000000006
20
-217.49567126231906
0
ENDSEC
0
SECTION
2
OBJECTS
0
DICTIONARY
5
C
100
AcDbDictionary
3
ACAD_GROUP
350
D
3
ACAD_MLINESTYLE
350
17
0
DICTIONARY
5
D
100
AcDbDictionary
0
DICTIONARY
5
1A
330
C
100
AcDbDictionary
0
DICTIONARY
5
17
100
AcDbDictionary
0
ENDSEC
0
EOF
